<svg width="86" height="77" viewBox="0 0 86 77" fill="none" xmlns="http://www.w3.org/2000/svg">
<mask id="mask0_4_498" style="mask-type:alpha" maskUnits="userSpaceOnUse" x="0" y="0" width="86" height="77">
<mask id="mask1_4_498" style="mask-type:alpha" maskUnits="userSpaceOnUse" x="0" y="0" width="86" height="77">
<g clip-path="url(#clip0_4_498)">
<mask id="mask2_4_498" style="mask-type:luminance" maskUnits="userSpaceOnUse" x="0" y="0" width="86" height="77">
<path d="M86 0H0V76.0769H86V0Z" fill="white"/>
</mask>
<g mask="url(#mask2_4_498)">
<path d="M9.55556 0C4.28507 0 0 4.26447 0 9.50961V52.3029C0 57.548 4.28507 61.8125 9.55556 61.8125H35.8333L34.2358 66.5673H23.8889C21.2462 66.5673 19.1111 68.6921 19.1111 71.3221C19.1111 73.9521 21.2462 76.0769 23.8889 76.0769H62.1111C64.7538 76.0769 66.8889 73.9521 66.8889 71.3221C66.8889 68.6921 64.7538 66.5673 62.1111 66.5673H51.7642L50.1667 61.8125H76.4444C81.7149 61.8125 86 57.548 86 52.3029V9.50961C86 4.26447 81.7149 0 76.4444 0H9.55556ZM76.4444 9.50961V42.7933H9.55556V9.50961H76.4444Z" fill="black"/>
<path d="M56.9203 29.2383C57.1204 28.2753 57.2446 27.2505 57.2446 26.2257C57.2446 18.4192 50.9047 12.1052 43.0815 12.1052C42.0537 12.1052 41.0326 12.2221 40.0599 12.4285C38.7491 11.4174 37.1211 10.819 35.3481 10.819C31.0847 10.819 27.6215 14.2718 27.6215 18.5223C27.6215 20.2901 28.2217 21.9133 29.2289 23.2131C29.0289 24.1761 28.9047 25.2009 28.9047 26.2257C28.9047 34.0322 35.2446 40.3462 43.0678 40.3462C44.0956 40.3462 45.1167 40.2294 46.0894 40.023C47.4002 41.0271 49.0282 41.6255 50.7943 41.6255C55.0578 41.6255 58.5209 38.1728 58.5209 33.9221C58.5278 32.1614 57.9276 30.5382 56.9203 29.2383ZM43.4955 35.5316C38.9699 35.5316 35.1825 33.5233 35.1825 31.0609C35.1825 29.9605 35.8035 28.9563 37.2177 28.9563C39.3701 28.9563 39.5701 32.0446 43.2955 32.0446C45.0683 32.0446 46.2135 31.2605 46.2135 30.2357C46.2135 28.9493 45.1098 28.7499 43.3161 28.3098C39.0044 27.2505 35.1894 26.7966 35.1894 22.3122C35.1894 18.2403 39.2321 16.7341 42.7159 16.7341C46.517 16.7341 50.3597 18.2403 50.3597 20.5445C50.3597 21.7069 49.5732 22.7317 48.2694 22.7317C46.3171 22.7317 46.255 20.4275 43.0954 20.4275C41.3224 20.4275 40.1978 20.9091 40.1978 21.9751C40.1978 23.337 41.6328 23.4745 44.9649 24.2449C47.8209 24.8846 51.2221 26.0881 51.2221 29.5822C51.2221 33.6471 47.2828 35.5316 43.4955 35.5316Z" fill="black"/>
</g>
</g>
</mask>
<g mask="url(#mask1_4_498)">
<rect x="-27.5641" y="-9.92307" width="179.718" height="170.897" fill="white"/>
</g>
</mask>
<g mask="url(#mask0_4_498)">
<rect x="-15" y="-28" width="137" height="132" fill="#FDCB63"/>
</g>
<defs>
<clipPath id="clip0_4_498">
<rect width="86" height="76.0769" fill="white"/>
</clipPath>
</defs>
</svg>
