<svg width="94" height="82" viewBox="0 0 94 82" fill="none" xmlns="http://www.w3.org/2000/svg">
<mask id="mask0_4_526" style="mask-type:alpha" maskUnits="userSpaceOnUse" x="0" y="0" width="94" height="82">
<mask id="mask1_4_526" style="mask-type:alpha" maskUnits="userSpaceOnUse" x="0" y="0" width="83" height="82">
<g clip-path="url(#clip0_4_526)">
<path d="M41.2344 46.125C47.3859 46.125 53.2855 43.6952 57.6352 39.3702C61.985 35.0451 64.4287 29.1791 64.4287 23.0625C64.4287 16.9459 61.985 11.0799 57.6352 6.75485C53.2855 2.42979 47.3859 0 41.2344 0C35.0829 0 29.1833 2.42979 24.8335 6.75485C20.4837 11.0799 18.04 16.9459 18.04 23.0625C18.04 29.1791 20.4837 35.0451 24.8335 39.3702C29.1833 43.6952 35.0829 46.125 41.2344 46.125ZM25.9809 51.25C11.6294 51.25 0 62.8133 0 77.0832C0 79.8059 2.22279 82 4.9449 82H77.5238C80.2621 82 82.4688 79.7898 82.4688 77.0832C82.4688 62.8133 70.8394 51.25 56.4879 51.25H25.9809Z" fill="black"/>
<path d="M72.8 6.2207L73.8225 8.92481" stroke="white" stroke-width="4" stroke-linecap="round"/>
</g>
</mask>
<g mask="url(#mask1_4_526)">
<rect x="-48.3438" y="-42.4138" width="181.431" height="179.834" fill="white"/>
</g>
<mask id="mask2_4_526" style="mask-type:alpha" maskUnits="userSpaceOnUse" x="66" y="11" width="20" height="24">
<path d="M79.8909 25.3471C81.0112 24.8229 81.9855 23.9613 82.6524 22.8057C84.3858 19.802 83.3424 15.9707 80.3215 14.2471C77.3006 12.5236 73.4474 13.5611 71.7139 16.5649C71.0471 17.7205 70.7906 18.9916 70.9008 20.2179C70.929 20.5333 70.9699 20.8954 71.0138 21.2819C71.131 22.3484 71.2692 23.6245 71.2482 24.7928C71.2267 25.8536 70.9677 26.824 70.6203 27.6819L68.5395 26.4946C68.7397 25.9312 68.8684 25.3439 68.8811 24.7412C68.8994 23.7351 68.7882 22.7173 68.677 21.6994C68.6289 21.271 68.5808 20.8426 68.5437 20.4148C68.3958 18.7322 68.7485 16.9794 69.663 15.3947C72.0461 11.2651 77.3451 9.83826 81.4983 12.2078C85.6515 14.5774 87.0865 19.8463 84.7034 23.9759C83.7889 25.5606 82.4449 26.7478 80.9026 27.4717C80.5124 27.6557 80.1161 27.8306 79.7199 28.0055C78.7824 28.4194 77.8425 28.8375 76.9757 29.3652C76.4588 29.6802 76.0139 30.0871 75.6257 30.5433L73.5533 29.3609C74.1229 28.6298 74.8373 27.9136 75.745 27.3641C76.7488 26.7565 77.9266 26.2312 78.9118 25.7937C79.2695 25.6364 79.6004 25.4863 79.8884 25.3513L79.8909 25.3471ZM78.36 17.646C77.2277 17 75.7819 17.3893 75.1322 18.5151C74.9165 18.889 74.4323 19.0194 74.0563 18.8048C73.6803 18.5903 73.5491 18.1089 73.7649 17.735C74.8486 15.8572 77.256 15.2089 79.1446 16.2865C79.5206 16.501 79.6517 16.9824 79.436 17.3563C79.2202 17.7301 78.736 17.8605 78.36 17.646ZM68.9452 33.9604C67.0566 32.8829 66.4047 30.4892 67.4884 28.6113L67.8806 27.9315L74.7172 31.8321L74.3249 32.5119C73.2412 34.3897 70.8338 35.038 68.9452 33.9604Z" fill="black"/>
</mask>
<g mask="url(#mask2_4_526)">
<path d="M48.9405 -2.23932H104.553V55.3143H48.9405V-2.23932Z" fill="white"/>
</g>
<path d="M91 16.4L88.1563 16.9922" stroke="white" stroke-width="4" stroke-linecap="round"/>
<path d="M84.7518 7.91724L83.0375 10.2497" stroke="white" stroke-width="4" stroke-linecap="round"/>
</mask>
<g mask="url(#mask0_4_526)">
<rect x="-71" y="-72" width="211" height="194" fill="#FDCB63"/>
</g>
<defs>
<clipPath id="clip0_4_526">
<rect width="82.4688" height="82" fill="white"/>
</clipPath>
</defs>
</svg>
