<svg width="125" height="125" viewBox="0 0 125 125" fill="none" xmlns="http://www.w3.org/2000/svg">
<mask id="mask0_4_513" style="mask-type:alpha" maskUnits="userSpaceOnUse" x="0" y="0" width="125" height="125">
<mask id="mask1_4_513" style="mask-type:alpha" maskUnits="userSpaceOnUse" x="0" y="0" width="125" height="125">
<g clip-path="url(#clip0_4_513)">
<path d="M76.8753 32.5775C80.7701 28.6676 90.8614 25.1678 94.8628 29.1536C98.9785 33.2533 95.4037 43.2443 91.509 47.1543L78.2304 60.4846L86.8952 92.006C87.3893 93.7964 86.8795 95.703 85.5699 97.0177L79.1698 103.443C77.9626 104.655 75.9196 104.373 75.0838 102.88L61.0457 77.7363L49.3388 89.4889L51.0042 100.987C51.1199 101.786 50.8476 102.608 50.2782 103.179L45.4952 107.981C44.6069 108.873 43.1806 108.864 42.3003 107.987C42.1517 107.839 42.0259 107.668 41.9114 107.486L32.9115 91.3465L16.737 82.4094C16.5428 82.3071 16.3828 82.1705 16.2342 82.0225C15.3424 81.1342 15.3511 79.7079 16.228 78.8276L21.011 74.0259C21.5804 73.4543 22.4014 73.1788 23.2003 73.2914L34.7051 74.9121L46.4235 63.148L21.2251 49.2079C19.7174 48.3893 19.4281 46.3474 20.6353 45.1356L27.0354 38.7105C28.345 37.3958 30.261 36.89 32.0419 37.3658L63.5968 45.9078L76.8753 32.5775Z" fill="black"/>
</g>
</mask>
<g mask="url(#mask1_4_513)">
<rect x="-4.99033" y="-9.98068" width="141.155" height="151.136" fill="white"/>
</g>
</mask>
<g mask="url(#mask0_4_513)">
<rect x="-33" y="-24" width="205" height="173" fill="#FDCB63"/>
</g>
<defs>
<clipPath id="clip0_4_513">
<rect width="92.9472" height="82.6197" fill="white" transform="translate(0 65.8513) rotate(-45.1115)"/>
</clipPath>
</defs>
</svg>
