<svg width="1126" height="234" viewBox="0 0 1126 234" fill="none" xmlns="http://www.w3.org/2000/svg">
<rect width="1126" height="234" fill="white"/>
<circle cx="98.5" cy="105.5" r="89.5" fill="#FDCB63"/>
<path d="M74.3974 138.228C74.3548 137.799 74.1719 137.465 73.8487 137.227C73.5256 136.989 73.087 136.87 72.533 136.87C72.1566 136.87 71.8388 136.923 71.5795 137.03C71.3203 137.133 71.1214 137.277 70.983 137.461C70.848 137.646 70.7805 137.855 70.7805 138.09C70.7734 138.285 70.8143 138.456 70.9031 138.601C70.9954 138.747 71.1214 138.873 71.2812 138.979C71.4411 139.082 71.6257 139.173 71.8352 139.251C72.0447 139.326 72.2685 139.39 72.5064 139.443L73.4865 139.677C73.9624 139.784 74.3991 139.926 74.7969 140.103C75.1946 140.281 75.5391 140.499 75.8303 140.759C76.1214 141.018 76.3469 141.323 76.5067 141.675C76.6701 142.026 76.7536 142.429 76.7571 142.884C76.7536 143.551 76.5831 144.13 76.2457 144.62C75.9119 145.107 75.429 145.485 74.7969 145.755C74.1683 146.021 73.4102 146.154 72.5224 146.154C71.6417 146.154 70.8746 146.02 70.2212 145.75C69.5714 145.48 69.0636 145.08 68.6978 144.551C68.3356 144.018 68.1456 143.36 68.1278 142.575H70.3597C70.3846 142.941 70.4893 143.246 70.674 143.491C70.8622 143.733 71.1126 143.915 71.4251 144.04C71.7411 144.161 72.098 144.221 72.4957 144.221C72.8864 144.221 73.2255 144.164 73.5131 144.05C73.8043 143.937 74.0298 143.779 74.1896 143.576C74.3494 143.374 74.4293 143.141 74.4293 142.879C74.4293 142.634 74.3565 142.428 74.2109 142.261C74.0689 142.094 73.8594 141.952 73.5824 141.835C73.3089 141.717 72.9734 141.611 72.5756 141.515L71.3878 141.217C70.468 140.993 69.7418 140.643 69.2092 140.167C68.6765 139.691 68.4119 139.05 68.4155 138.244C68.4119 137.584 68.5877 137.007 68.9428 136.513C69.3015 136.02 69.7933 135.634 70.4183 135.357C71.0433 135.08 71.7536 134.942 72.549 134.942C73.3587 134.942 74.0653 135.08 74.669 135.357C75.2763 135.634 75.7486 136.02 76.0859 136.513C76.4233 137.007 76.5973 137.578 76.608 138.228H74.3974ZM80.322 143.646L80.3273 140.924H80.6576L83.2783 137.818H85.8831L82.3621 141.93H81.8241L80.322 143.646ZM78.2659 146V135.091H80.5351V146H78.2659ZM83.3795 146L80.9719 142.436L82.4846 140.833L86.0376 146H83.3795ZM88.5291 149.068C88.2415 149.068 87.9716 149.045 87.7195 148.999C87.4709 148.956 87.2649 148.901 87.1016 148.834L87.6129 147.14C87.8793 147.222 88.119 147.266 88.332 147.273C88.5487 147.28 88.7351 147.23 88.8913 147.124C89.0511 147.017 89.1808 146.836 89.2802 146.581L89.4134 146.234L86.4783 137.818H88.8647L90.5586 143.827H90.6438L92.3537 137.818H94.756L91.576 146.884C91.4233 147.325 91.2156 147.708 90.9528 148.035C90.6935 148.365 90.3651 148.619 89.9673 148.797C89.5696 148.978 89.0902 149.068 88.5291 149.068ZM95.9173 149.068V137.818H98.1545V139.192H98.2557C98.3551 138.972 98.4989 138.749 98.6871 138.521C98.8789 138.29 99.1275 138.099 99.4329 137.946C99.7418 137.79 100.125 137.712 100.583 137.712C101.18 137.712 101.73 137.868 102.235 138.18C102.739 138.489 103.142 138.956 103.444 139.581C103.746 140.203 103.897 140.982 103.897 141.92C103.897 142.832 103.749 143.603 103.455 144.232C103.163 144.857 102.766 145.331 102.261 145.654C101.761 145.973 101.2 146.133 100.578 146.133C100.138 146.133 99.7631 146.06 99.4542 145.915C99.1488 145.769 98.8984 145.586 98.7031 145.366C98.5078 145.142 98.3587 144.917 98.2557 144.69H98.1864V149.068H95.9173ZM98.1385 141.909C98.1385 142.396 98.206 142.82 98.3409 143.182C98.4759 143.544 98.6712 143.827 98.9268 144.029C99.1825 144.228 99.4933 144.327 99.859 144.327C100.228 144.327 100.541 144.226 100.797 144.024C101.052 143.818 101.246 143.534 101.377 143.172C101.512 142.806 101.58 142.385 101.58 141.909C101.58 141.437 101.514 141.021 101.382 140.663C101.251 140.304 101.058 140.023 100.802 139.821C100.546 139.619 100.232 139.517 99.859 139.517C99.4897 139.517 99.1772 139.615 98.9215 139.81C98.6694 140.006 98.4759 140.283 98.3409 140.641C98.206 141 98.1385 141.423 98.1385 141.909ZM109.138 146.16C108.297 146.16 107.572 145.989 106.965 145.648C106.361 145.304 105.896 144.817 105.569 144.189C105.243 143.557 105.079 142.809 105.079 141.946C105.079 141.105 105.243 140.366 105.569 139.73C105.896 139.095 106.356 138.599 106.949 138.244C107.545 137.889 108.245 137.712 109.048 137.712C109.587 137.712 110.09 137.799 110.555 137.973C111.024 138.143 111.432 138.401 111.78 138.745C112.132 139.089 112.405 139.523 112.6 140.045C112.796 140.563 112.893 141.17 112.893 141.866V142.49H105.985V141.083H110.757C110.757 140.757 110.686 140.467 110.544 140.215C110.402 139.963 110.205 139.766 109.953 139.624C109.705 139.478 109.415 139.406 109.085 139.406C108.74 139.406 108.435 139.485 108.169 139.645C107.906 139.801 107.7 140.013 107.551 140.279C107.402 140.542 107.325 140.835 107.322 141.158V142.495C107.322 142.9 107.396 143.25 107.545 143.544C107.698 143.839 107.913 144.066 108.19 144.226C108.467 144.386 108.795 144.466 109.175 144.466C109.428 144.466 109.658 144.43 109.868 144.359C110.077 144.288 110.257 144.182 110.406 144.04C110.555 143.898 110.669 143.724 110.747 143.518L112.846 143.656C112.739 144.161 112.521 144.601 112.19 144.977C111.864 145.35 111.441 145.641 110.923 145.851C110.408 146.057 109.813 146.16 109.138 146.16ZM114.504 135.725L114.699 137.78C116.424 137.405 119.499 137.075 120.894 136.925C119.889 137.69 118.674 139.4 118.674 141.545C118.674 144.8 121.644 146.495 124.779 146.69L125.484 144.635C122.949 144.515 120.639 143.615 120.639 141.155C120.639 139.37 122.004 137.42 123.804 136.94C124.614 136.76 125.904 136.745 126.714 136.745L126.699 134.81C125.634 134.855 123.999 134.96 122.439 135.08C119.694 135.32 117.219 135.53 115.974 135.65C115.689 135.68 115.089 135.71 114.504 135.725ZM124.569 138.215L123.459 138.68C123.924 139.34 124.239 139.94 124.629 140.75L125.754 140.255C125.469 139.655 124.929 138.74 124.569 138.215ZM126.234 137.525L125.154 138.02C125.634 138.68 125.979 139.25 126.384 140.06L127.509 139.52C127.194 138.935 126.624 138.05 126.234 137.525ZM59.525 151.265V163.64C59.525 163.895 59.435 163.985 59.15 164C58.895 164 58.01 164.015 57.29 163.985C57.515 164.345 57.8 164.975 57.89 165.395C59.165 165.395 59.975 165.365 60.56 165.14C61.13 164.885 61.355 164.525 61.355 163.64V151.265H59.525ZM53.9 152.24V153.665H67.1V152.24H53.9ZM57.155 155.405H63.785V156.125H57.155V155.405ZM55.445 154.265V157.265H65.63V154.265H55.445ZM55.07 157.925V159.155H64.055V163.79H65.885V157.925H55.07ZM53.555 159.785V161.15H67.445V159.785H53.555ZM54.95 161.855V163.16H65.03V161.855H54.95ZM68.675 153.485V155.12H82.325V153.485H68.675ZM70.445 158.6V159.92H74.345V158.6H70.445ZM70.445 160.895V162.23H74.345V160.895H70.445ZM76.73 156.305V162.455H78.395V156.305H76.73ZM73.715 156.155V163.55C73.715 163.73 73.655 163.79 73.46 163.79C73.28 163.805 72.665 163.805 72.11 163.775C72.335 164.195 72.59 164.855 72.68 165.305C73.61 165.305 74.3 165.29 74.795 165.02C75.305 164.765 75.455 164.345 75.455 163.58V156.155H73.715ZM79.745 155.9V163.355C79.745 163.565 79.67 163.625 79.43 163.625C79.175 163.64 78.395 163.64 77.63 163.595C77.885 164.06 78.17 164.825 78.26 165.305C79.37 165.32 80.18 165.26 80.75 164.99C81.35 164.72 81.515 164.255 81.515 163.385V155.9H79.745ZM70.745 151.85C71.27 152.45 71.825 153.305 72.035 153.845L73.85 153.2C73.595 152.63 72.995 151.835 72.455 151.25L70.745 151.85ZM78.44 151.22C78.11 152.03 77.495 153.125 76.985 153.83L78.605 154.385C79.13 153.725 79.79 152.765 80.405 151.805L78.44 151.22ZM69.5 156.155V165.26H71.195V157.655H74.225V156.155H69.5ZM85.34 153.35V155.45C85.76 155.42 86.57 155.39 87.2 155.39H93.95V162.8C93.95 163.355 93.935 163.895 93.92 164.345H96.095C96.065 163.88 96.02 163.1 96.02 162.575V154.805C96.02 154.355 96.05 153.77 96.065 153.41C95.81 153.425 95.195 153.455 94.76 153.455H87.2C86.675 153.455 85.91 153.41 85.34 153.35ZM85.16 161.495V163.655C85.655 163.595 86.495 163.565 87.08 163.565H95.135V161.585H87.02C86.345 161.585 85.67 161.54 85.16 161.495ZM101.615 152.6L100.19 154.115C101.285 154.865 103.175 156.5 103.955 157.34L105.485 155.78C104.6 154.865 102.65 153.305 101.615 152.6ZM99.725 162.59L101 164.57C103.1 164.21 105.035 163.385 106.565 162.47C108.98 161.015 110.975 158.945 112.1 156.905L110.945 154.805C109.985 156.83 108.035 159.11 105.47 160.64C104.015 161.495 102.08 162.26 99.725 162.59ZM124.22 157.385V153.455C124.22 152.855 124.28 152.375 124.31 152.075H122.165C122.225 152.36 122.255 152.855 122.255 153.455V157.445C122.255 161.135 120.995 162.44 118.085 163.445L119.69 164.96C123.32 163.355 124.22 161.09 124.22 157.385ZM118.79 152.195H116.66C116.72 152.66 116.75 153.125 116.75 153.545V158.915C116.75 159.59 116.705 160.205 116.675 160.49H118.775C118.745 160.205 118.7 159.59 118.7 158.915V153.56C118.7 152.96 118.76 152.48 118.79 152.195ZM113.855 154.895V156.935C114.2 156.92 114.725 156.89 115.475 156.89H125.33C126.11 156.89 126.65 156.89 126.98 156.935V154.94C126.56 155 126.11 155.045 125.315 155.045H115.475C114.74 155.045 114.125 154.94 113.855 154.895ZM135.53 163.67L136.79 164.705C136.94 164.6 137.12 164.435 137.435 164.27C139.13 163.415 141.275 161.795 142.52 160.175L141.38 158.51C140.36 159.965 138.89 161.15 137.66 161.675C137.66 160.76 137.66 155.045 137.66 153.845C137.66 153.17 137.765 152.57 137.765 152.54H135.545C135.545 152.57 135.65 153.155 135.65 153.83C135.65 155.045 135.65 161.78 135.65 162.575C135.65 162.98 135.605 163.385 135.53 163.67ZM128.585 163.46L130.415 164.675C131.705 163.535 132.635 162.05 133.1 160.37C133.49 158.855 133.535 155.69 133.535 153.905C133.535 153.29 133.64 152.615 133.64 152.555H131.435C131.525 152.93 131.585 153.32 131.585 153.935C131.585 155.735 131.57 158.585 131.135 159.86C130.73 161.15 129.92 162.53 128.585 163.46Z" fill="white"/>
<mask id="mask0_0_1" style="mask-type:alpha" maskUnits="userSpaceOnUse" x="55" y="51" width="86" height="77">
<g clip-path="url(#clip0_0_1)">
<mask id="mask1_0_1" style="mask-type:luminance" maskUnits="userSpaceOnUse" x="55" y="51" width="86" height="77">
<path d="M141 51H55V127.077H141V51Z" fill="white"/>
</mask>
<g mask="url(#mask1_0_1)">
<path d="M64.5556 51C59.2851 51 55 55.2645 55 60.5096V103.303C55 108.548 59.2851 112.812 64.5556 112.812H90.8333L89.2358 117.567H78.8889C76.2462 117.567 74.1111 119.692 74.1111 122.322C74.1111 124.952 76.2462 127.077 78.8889 127.077H117.111C119.754 127.077 121.889 124.952 121.889 122.322C121.889 119.692 119.754 117.567 117.111 117.567H106.764L105.167 112.812H131.444C136.715 112.812 141 108.548 141 103.303V60.5096C141 55.2645 136.715 51 131.444 51H64.5556ZM131.444 60.5096V93.7933H64.5556V60.5096H131.444Z" fill="black"/>
<path d="M111.92 80.2384C112.12 79.2754 112.245 78.2505 112.245 77.2257C112.245 69.4192 105.905 63.1052 98.0815 63.1052C97.0537 63.1052 96.0326 63.2222 95.0599 63.4285C93.7491 62.4174 92.1211 61.819 90.3481 61.819C86.0847 61.819 82.6215 65.2718 82.6215 69.5224C82.6215 71.2901 83.2217 72.9133 84.2289 74.2131C84.0289 75.1761 83.9047 76.2009 83.9047 77.2257C83.9047 85.0322 90.2446 91.3462 98.0678 91.3462C99.0956 91.3462 100.117 91.2294 101.089 91.023C102.4 92.0272 104.028 92.6255 105.794 92.6255C110.058 92.6255 113.521 89.1728 113.521 84.9221C113.528 83.1614 112.928 81.5382 111.92 80.2384ZM98.4955 86.5316C93.9699 86.5316 90.1825 84.5233 90.1825 82.0609C90.1825 80.9605 90.8035 79.9563 92.2177 79.9563C94.3701 79.9563 94.5701 83.0446 98.2955 83.0446C100.068 83.0446 101.213 82.2605 101.213 81.2357C101.213 79.9493 100.11 79.7499 98.3161 79.3098C94.0044 78.2505 90.1894 77.7966 90.1894 73.3122C90.1894 69.2403 94.2321 67.7341 97.7159 67.7341C101.517 67.7341 105.36 69.2403 105.36 71.5445C105.36 72.7069 104.573 73.7317 103.269 73.7317C101.317 73.7317 101.255 71.4275 98.0954 71.4275C96.3224 71.4275 95.1978 71.9091 95.1978 72.9751C95.1978 74.337 96.6328 74.4745 99.9649 75.2449C102.821 75.8846 106.222 77.0881 106.222 80.5822C106.222 84.6471 102.283 86.5316 98.4955 86.5316Z" fill="black"/>
</g>
</g>
</mask>
<g mask="url(#mask0_0_1)">
<rect x="27.4359" y="41.0769" width="179.718" height="170.897" fill="white"/>
</g>
<circle cx="328.5" cy="105.5" r="89.5" fill="#FDCB63"/>
<path d="M297.025 133.265V145.64C297.025 145.895 296.935 145.985 296.65 146C296.395 146 295.51 146.015 294.79 145.985C295.015 146.345 295.3 146.975 295.39 147.395C296.665 147.395 297.475 147.365 298.06 147.14C298.63 146.885 298.855 146.525 298.855 145.64V133.265H297.025ZM291.4 134.24V135.665H304.6V134.24H291.4ZM294.655 137.405H301.285V138.125H294.655V137.405ZM292.945 136.265V139.265H303.13V136.265H292.945ZM292.57 139.925V141.155H301.555V145.79H303.385V139.925H292.57ZM291.055 141.785V143.15H304.945V141.785H291.055ZM292.45 143.855V145.16H302.53V143.855H292.45ZM306.175 135.485V137.12H319.825V135.485H306.175ZM307.945 140.6V141.92H311.845V140.6H307.945ZM307.945 142.895V144.23H311.845V142.895H307.945ZM314.23 138.305V144.455H315.895V138.305H314.23ZM311.215 138.155V145.55C311.215 145.73 311.155 145.79 310.96 145.79C310.78 145.805 310.165 145.805 309.61 145.775C309.835 146.195 310.09 146.855 310.18 147.305C311.11 147.305 311.8 147.29 312.295 147.02C312.805 146.765 312.955 146.345 312.955 145.58V138.155H311.215ZM317.245 137.9V145.355C317.245 145.565 317.17 145.625 316.93 145.625C316.675 145.64 315.895 145.64 315.13 145.595C315.385 146.06 315.67 146.825 315.76 147.305C316.87 147.32 317.68 147.26 318.25 146.99C318.85 146.72 319.015 146.255 319.015 145.385V137.9H317.245ZM308.245 133.85C308.77 134.45 309.325 135.305 309.535 135.845L311.35 135.2C311.095 134.63 310.495 133.835 309.955 133.25L308.245 133.85ZM315.94 133.22C315.61 134.03 314.995 135.125 314.485 135.83L316.105 136.385C316.63 135.725 317.29 134.765 317.905 133.805L315.94 133.22ZM307 138.155V147.26H308.695V139.655H311.725V138.155H307ZM326.59 140.855V142.445H334.78V140.855H326.59ZM331.9 141.8L330.625 142.265C331.405 143.945 332.74 145.715 334.015 146.72C334.285 146.285 334.855 145.67 335.245 145.355C333.985 144.59 332.62 143.135 331.9 141.8ZM328.615 137.585H332.755V138.56H328.615V137.585ZM328.615 135.26H332.755V136.205H328.615V135.26ZM327.025 133.835V139.97H334.42V133.835H327.025ZM329.485 141.68C328.78 143.15 327.385 144.635 325.96 145.4C326.335 145.715 326.89 146.36 327.16 146.78C328.66 145.805 330.04 144.005 330.835 142.145L329.485 141.68ZM329.89 134.54V139.295H329.8V147.335H331.54V139.295H331.435V134.54H329.89ZM321.625 137.87V139.22H326.02V137.87H321.625ZM321.67 133.73V135.095H325.975V133.73H321.67ZM321.625 139.91V141.275H326.02V139.91H321.625ZM320.935 135.755V137.18H326.41V135.755H320.935ZM322.405 141.995V143.42H324.535V145.13H322.405V146.555H326.035V141.995H322.405ZM321.595 141.995V147.155H323.065V141.995H321.595ZM338.425 136.895H340.555V137.615H338.425V136.895ZM338.425 135.05H340.555V135.755H338.425V135.05ZM336.835 133.85V138.83H342.22V133.85H336.835ZM336.13 139.685V141.005H342.895V139.685H336.13ZM342.835 133.895V135.155H349.75V133.895H342.835ZM338.935 140.105V145.265L340.435 146.135V140.105H338.935ZM339.715 142.22V143.51H342.625V142.22H339.715ZM345.73 134.195C345.58 134.9 345.295 135.875 345.025 136.55L346.3 136.88C346.615 136.295 347.005 135.395 347.365 134.555L345.73 134.195ZM344.905 139.025H347.635V139.73H344.905V139.025ZM344.905 140.87H347.635V141.59H344.905V140.87ZM344.905 137.165H347.635V137.87H344.905V137.165ZM343.3 135.95V142.82H349.3V135.95H343.3ZM344.515 142.925C344.005 143.54 343.105 144.155 342.205 144.545C342.535 144.785 343.105 145.31 343.36 145.595C344.29 145.085 345.355 144.23 346 143.375L344.515 142.925ZM336.82 141.59C336.775 143.405 336.625 145.175 335.77 146.225C336.13 146.495 336.61 147.065 336.82 147.44C337.96 146.09 338.185 143.885 338.26 141.59H336.82ZM338.02 142.85L336.955 143.165C338.02 146.555 340.075 147.065 343.795 147.065H349.585C349.675 146.615 349.93 145.925 350.17 145.58C348.94 145.64 344.8 145.64 343.795 145.64C340.735 145.625 338.86 145.37 338.02 142.85ZM346.645 143.465C347.395 144.02 348.325 144.89 348.79 145.49L350.08 144.725C349.615 144.155 348.685 143.345 347.875 142.82L346.645 143.465ZM359.365 135.725L357.31 135.665C357.16 137.24 356.83 138.965 356.395 140.375C355.765 142.4 355.195 143.36 354.55 143.36C353.98 143.36 353.38 142.625 353.38 141.11C353.38 139.22 355.12 136.625 358.3 136.625C360.895 136.625 362.365 138.305 362.365 140.66C362.365 142.865 360.865 144.23 358.96 144.695C358.555 144.785 358.135 144.86 357.55 144.935L358.69 146.705C362.47 146.12 364.405 143.885 364.405 140.735C364.405 137.45 362.05 134.87 358.345 134.87C354.46 134.87 351.445 137.84 351.445 141.29C351.445 143.825 352.825 145.67 354.505 145.67C356.14 145.67 357.43 143.81 358.33 140.78C358.855 139.01 359.155 137.255 359.365 135.725ZM320.755 154.91H324.82V155.645H320.755V154.91ZM320.755 153.005H324.82V153.755H320.755V153.005ZM319.105 151.73V156.935H326.545V151.73H319.105ZM318.37 157.625V159.08H327.31V157.625H318.37ZM321.925 158.42V163.79L323.62 164.525V158.42H321.925ZM320.545 161.075L319.465 161.435C320.425 164.615 322.165 165.155 324.595 165.155H327.22C327.28 164.69 327.49 163.94 327.715 163.565C327.055 163.595 325.18 163.595 324.67 163.595C322.825 163.595 321.295 163.31 320.545 161.075ZM323.155 160.4V161.81H326.5V160.4H323.155ZM319.27 159.53C319.045 161.585 318.415 163.25 317.17 164.255C317.545 164.495 318.22 165.035 318.49 165.32C319.81 164.105 320.575 162.17 320.89 159.725L319.27 159.53ZM313.33 158.87L313.72 160.61C315.07 160.235 316.765 159.74 318.34 159.26L318.1 157.64C316.375 158.12 314.56 158.615 313.33 158.87ZM313.48 154.115V155.765H318.25V154.115H313.48ZM315.1 151.28V163.235C315.1 163.445 315.04 163.505 314.86 163.505C314.68 163.505 314.155 163.505 313.615 163.49C313.825 163.97 314.035 164.705 314.08 165.155C315.04 165.155 315.7 165.095 316.15 164.81C316.615 164.54 316.75 164.075 316.75 163.25V151.28H315.1ZM330.385 162.71V164.48H340.645V162.71H330.385ZM334.465 151.415V163.79H336.34V151.415H334.465ZM329.5 158.96V165.35H331.33V158.96H329.5ZM339.685 158.96V165.335H341.56V158.96H339.685ZM330.1 152.675V158.15H340.96V152.675H339.055V156.41H331.9V152.675H330.1Z" fill="white"/>
<circle cx="558.5" cy="105.5" r="89.5" fill="#FDCB63"/>
<path d="M521.115 144.045V145.71H526.395V144.045H521.115ZM521.25 148.335V149.985H526.23V148.335H521.25ZM520.755 153.54L521.205 155.25C522.765 154.785 524.805 154.2 526.695 153.63L526.455 152.055C524.385 152.625 522.21 153.21 520.755 153.54ZM528.645 147.585H532.59V148.515H528.645V147.585ZM528.645 149.895H532.59V150.81H528.645V149.895ZM528.645 145.305H532.59V146.22H528.645V145.305ZM526.98 143.835V152.295H534.345V143.835H526.98ZM530.76 151.635V155.25C530.76 156.765 531.06 157.275 532.455 157.275C532.71 157.275 533.325 157.275 533.595 157.275C534.69 157.275 535.11 156.705 535.26 154.65C534.81 154.545 534.09 154.26 533.745 153.99C533.715 155.49 533.655 155.73 533.4 155.73C533.265 155.73 532.875 155.73 532.77 155.73C532.53 155.73 532.485 155.685 532.485 155.235V151.635H530.76ZM528.105 152.07C527.91 153.975 527.52 155.25 524.67 155.97C525.03 156.315 525.48 157.005 525.66 157.455C528.99 156.45 529.635 154.635 529.86 152.07H528.105ZM522.93 144.705V153.78L524.67 153.525V144.705H522.93ZM544.755 143.265V153.855H546.45V143.265H544.755ZM540.315 149.295L540.99 150.885L548.745 147.525L548.085 145.995L540.315 149.295ZM541.8 144.72V154.425C541.8 156.51 542.37 157.05 544.425 157.05C544.89 157.05 547.14 157.05 547.635 157.05C549.39 157.05 549.93 156.345 550.155 154.215C549.675 154.125 548.97 153.84 548.58 153.57C548.46 155.115 548.31 155.445 547.485 155.445C547.02 155.445 545.025 155.445 544.575 155.445C543.645 155.445 543.51 155.325 543.51 154.44V144.72H541.8ZM547.74 146.19C547.74 149.505 547.74 151.14 547.68 151.44C547.635 151.71 547.545 151.755 547.365 151.755C547.23 151.755 546.885 151.755 546.63 151.74C546.825 152.115 546.96 152.79 547.02 153.24C547.5 153.24 548.145 153.24 548.58 153.03C549.045 152.835 549.3 152.475 549.36 151.785C549.42 151.17 549.45 149.355 549.45 146.49L549.525 146.19L548.265 145.74L547.95 145.965L547.635 146.19H547.74ZM536.01 146.745V148.44H540.96V146.745H536.01ZM537.75 143.475V153.42H539.43V143.475H537.75ZM535.8 153.435L536.52 155.235C537.915 154.605 539.64 153.795 541.23 152.985L540.825 151.395C538.995 152.175 537.045 152.985 535.8 153.435ZM557.205 145.515L557.22 147.435C559.095 147.615 561.825 147.615 563.655 147.435V145.5C562.05 145.695 559.05 145.77 557.205 145.515ZM558.405 151.92L556.695 151.77C556.515 152.535 556.425 153.12 556.425 153.72C556.425 155.25 557.67 156.18 560.25 156.18C561.945 156.18 563.16 156.075 564.135 155.88L564.09 153.855C562.785 154.14 561.675 154.26 560.34 154.26C558.81 154.26 558.225 153.855 558.225 153.18C558.225 152.79 558.285 152.43 558.405 151.92ZM554.895 144.51L552.795 144.345C552.78 144.825 552.705 145.395 552.645 145.8C552.48 146.97 552.03 149.49 552.03 151.755C552.03 153.795 552.315 155.625 552.615 156.645L554.34 156.54C554.325 156.33 554.325 156.075 554.31 155.91C554.31 155.76 554.355 155.43 554.4 155.205C554.55 154.41 555.045 152.79 555.48 151.53L554.55 150.795C554.325 151.305 554.085 151.815 553.86 152.325C553.815 152.025 553.8 151.65 553.8 151.35C553.8 149.85 554.325 146.85 554.535 145.86C554.595 145.59 554.79 144.825 554.895 144.51ZM571.26 144.555V146.055H579.9V144.555H571.26ZM571.785 147.27V148.68H579.96V147.27H571.785ZM572.355 151.455V152.865H578.4V151.455H572.355ZM570.45 144.555V148.635C570.45 150.93 570.33 154.185 568.905 156.42C569.34 156.57 570.09 156.99 570.42 157.275C571.905 154.875 572.145 151.155 572.145 148.635V144.555H570.45ZM574.44 143.25V145.545H576.27V143.25H574.44ZM573.36 146.325V150.885H578.55V146.325H576.9V149.52H574.935V146.325H573.36ZM577.83 151.455V151.695C576.945 153.99 574.425 155.34 571.455 155.85C571.755 156.21 572.145 156.885 572.31 157.305C575.625 156.555 578.37 154.995 579.555 151.875L578.46 151.395L578.16 151.455H577.83ZM574.485 152.73L572.94 153.195C574.17 155.385 576.24 156.765 579.15 157.35C579.375 156.9 579.855 156.21 580.23 155.85C577.53 155.445 575.46 154.365 574.485 152.73ZM566.73 144.675C567.615 145.065 568.74 145.74 569.265 146.25L570.315 144.765C569.745 144.285 568.59 143.685 567.72 143.34L566.73 144.675ZM565.905 148.725C566.805 149.1 567.93 149.745 568.455 150.225L569.505 148.74C568.92 148.26 567.78 147.675 566.895 147.36L565.905 148.725ZM566.04 156.165L567.69 157.185C568.41 155.685 569.16 153.93 569.775 152.295L568.305 151.26C567.6 153.06 566.7 154.98 566.04 156.165ZM590.145 143.265V146.28H591.885V143.265H590.145ZM587.235 145.53V147.105H594.975V145.53H587.235ZM589.26 148.29V149.85H592.56V148.29H589.26ZM588.36 148.29V151.665C588.36 153.165 588.24 155.04 586.935 156.375C587.325 156.555 588.045 157.08 588.345 157.365C589.8 155.895 590.04 153.495 590.04 151.695V148.29H588.36ZM583.785 151.395V154.845H584.82V151.395H583.785ZM582.63 145.29V146.685H585.795V145.29H582.63ZM585.42 145.29V155.715C585.42 155.88 585.375 155.94 585.195 155.94C585.045 155.955 584.535 155.955 584.04 155.94C584.22 156.3 584.43 156.945 584.475 157.35C585.33 157.35 585.915 157.32 586.335 157.08C586.755 156.825 586.875 156.42 586.875 155.73V145.29H585.42ZM581.925 145.29V150.78C581.925 152.625 581.85 154.95 580.86 156.555C581.205 156.705 581.835 157.095 582.09 157.335C583.17 155.61 583.335 152.82 583.335 150.78V145.29H581.925ZM580.89 150L581.07 151.44C582.84 151.26 585.3 151.02 587.64 150.795L587.595 149.43C585.165 149.655 582.6 149.88 580.89 150ZM583.47 147.45C583.8 148.05 584.07 148.86 584.16 149.385L585.285 148.92C585.195 148.395 584.88 147.6 584.52 147.03L583.47 147.45ZM583.695 143.25C583.62 143.955 583.41 144.93 583.2 145.605L584.79 145.89C585.015 145.32 585.315 144.435 585.6 143.55L583.695 143.25ZM591.63 148.29V155.04C591.63 156.15 591.735 156.495 591.99 156.765C592.245 157.035 592.65 157.14 593.01 157.14C593.205 157.14 593.535 157.14 593.775 157.14C594.075 157.14 594.405 157.08 594.615 156.915C594.855 156.75 595.005 156.51 595.095 156.135C595.185 155.79 595.245 154.89 595.26 154.17C594.87 154.035 594.36 153.765 594.06 153.51C594.06 154.26 594.045 154.845 594.015 155.13C593.985 155.385 593.97 155.52 593.925 155.565C593.88 155.625 593.805 155.64 593.73 155.64C593.67 155.64 593.565 155.64 593.52 155.64C593.445 155.64 593.4 155.61 593.37 155.565C593.34 155.505 593.325 155.325 593.325 154.995V148.29H591.63Z" fill="white"/>
<circle cx="788.5" cy="105.5" r="89.5" fill="#FDCB63"/>
<path d="M764.555 133.28V135.68H766.4V133.28H764.555ZM759.065 134.585V137.81H760.85V136.16H770.06V137.81H771.92V134.585H759.065ZM760.4 137.345V138.8H770.705V137.345H760.4ZM758.945 142.1V143.66H772.13V142.1H758.945ZM760.64 139.7V141.155H770.405V139.7H760.64ZM766.385 142.415L764.765 142.745C765.92 145.415 767.84 146.84 771.275 147.395C771.5 146.915 771.965 146.195 772.34 145.82C769.22 145.49 767.27 144.395 766.385 142.415ZM764.51 136.49V140.645C764.51 142.655 763.85 144.71 758.66 145.895C759.05 146.27 759.575 146.96 759.77 147.35C765.23 145.88 766.325 143.3 766.325 140.66V136.49H764.51ZM779.585 133.28V135.275H781.385V133.28H779.585ZM779.54 141.455V147.335H781.355V141.455H779.54ZM774.065 134.27V136.58H775.73V135.755H785.225V136.58H786.965V134.27H774.065ZM773.96 136.865V138.275H787.07V136.865H773.96ZM773.675 142.49V143.975H787.34V142.49H773.675ZM778.865 135.665C777.965 136.955 776.69 138.62 775.745 139.67L777.455 140.135C778.325 139.1 779.57 137.51 780.545 136.16L778.865 135.665ZM776.96 139.745C779.735 140.315 783.485 141.38 785.36 142.175L786.425 140.915C784.37 140.12 780.59 139.145 777.95 138.68L776.96 139.745ZM779.09 143.345C777.905 144.455 775.55 145.355 773.315 145.745C773.675 146.09 774.185 146.78 774.425 147.2C776.72 146.645 779.045 145.445 780.425 143.93L779.09 143.345ZM781.79 143.3L780.5 143.87C781.925 145.415 784.31 146.63 786.605 147.185C786.845 146.735 787.355 146.045 787.745 145.67C785.465 145.295 783.05 144.395 781.79 143.3ZM782.765 137.705C782.03 139.52 780.56 140.42 774.335 140.735C774.575 141.095 774.86 141.71 774.92 142.13C781.64 141.665 783.695 140.42 784.655 137.705H782.765ZM796.805 133.46V147.335H798.62V133.46H796.805ZM794.255 134.09C793.91 135.935 793.28 137.84 792.47 139.025C792.905 139.22 793.685 139.625 794.045 139.895C794.84 138.575 795.56 136.475 795.98 134.45L794.255 134.09ZM794.825 136.175L794.39 137.93H801.77V136.175H794.825ZM792.74 140.525V142.295H802.49V140.525H792.74ZM791.63 133.325C790.88 135.47 789.605 137.6 788.27 138.965C788.57 139.4 789.065 140.39 789.23 140.825C790.835 139.1 792.365 136.4 793.325 133.85L791.63 133.325ZM790.145 137.465V147.335H791.855V135.77V135.755L790.145 137.465ZM810.29 133.97L808.31 133.805C808.265 134.57 808.07 135.485 807.77 136.295C807.14 137.945 805.985 139.565 804.065 141.335L805.67 142.535C806.18 141.875 806.6 141.335 807.05 140.885C807.62 140.345 808.565 139.85 809.39 139.85C810.02 139.85 810.62 140.165 810.62 141.125C810.635 141.935 810.605 143.21 810.545 143.915H812.345C812.33 142.97 812.285 141.335 812.285 140.525C812.285 139.13 811.34 138.395 810.095 138.395C809.585 138.395 808.79 138.5 808.385 138.68C808.805 138.08 809.24 137.225 809.555 136.49C809.975 135.41 810.17 134.525 810.29 133.97ZM804.635 135.365V137.105C805.46 137.18 806.555 137.21 807.17 137.21C809 137.21 812.015 137.075 814.13 136.775L814.145 135.035C811.97 135.425 809.255 135.53 807.275 135.53C806.51 135.53 805.4 135.47 804.635 135.365ZM816.515 139.625L815.78 137.87C815.21 138.155 814.685 138.395 814.1 138.65C813.2 139.07 812.255 139.43 810.875 140.15C809.075 141.05 806.93 142.28 806.93 144.365C806.93 146.3 808.685 146.885 811.025 146.885C812.45 146.885 814.28 146.75 815.285 146.615L815.345 144.68C814.025 144.95 812.345 145.115 811.07 145.115C809.615 145.115 808.895 144.89 808.895 144.065C808.895 143.24 809.63 142.595 810.995 141.89C812.405 141.17 813.755 140.63 814.73 140.255C815.24 140.06 816.05 139.76 816.515 139.625ZM754.837 157.115H751.207V158.78H753.127V162.635H754.837V157.115ZM754.837 161.93H753.277C752.557 162.485 751.717 163.025 751.012 163.43L751.837 165.215C752.692 164.585 753.397 164 754.087 163.415C754.987 164.57 756.187 165.005 757.987 165.08C759.832 165.17 763.027 165.14 764.887 165.05C764.977 164.525 765.247 163.7 765.442 163.295C763.372 163.46 759.802 163.505 758.017 163.415C756.472 163.355 755.437 162.935 754.837 161.93ZM751.417 152.735C752.347 153.425 753.472 154.475 753.952 155.195L755.302 153.905C754.762 153.185 753.592 152.21 752.662 151.58L751.417 152.735ZM757.492 154.175C758.872 154.715 760.732 155.57 761.647 156.14L762.877 155.075C761.857 154.49 759.967 153.68 758.632 153.215L757.492 154.175ZM756.127 155.03V162.8H757.822V156.335H763.762V155.03H756.127ZM762.922 155.03V161.225C762.922 161.39 762.877 161.45 762.697 161.45C762.547 161.45 762.022 161.45 761.542 161.435C761.737 161.825 761.932 162.41 761.992 162.845C762.892 162.845 763.552 162.845 764.017 162.59C764.512 162.35 764.632 161.975 764.632 161.24V155.03H762.922ZM756.262 151.76V153.125H763.417V151.76H756.262ZM757.072 157.145V158.39H763.507V157.145H757.072ZM757.072 159.245V160.55H763.507V159.245H757.072ZM759.547 155.645V162.74H761.152V155.645H759.547ZM762.772 151.76V152.075C762.202 152.765 760.897 153.71 759.772 154.25C760.027 154.49 760.462 154.955 760.672 155.255C762.052 154.595 763.537 153.53 764.602 152.54L763.537 151.67L763.177 151.76H762.772ZM771.292 152.105L768.877 152.09C768.997 152.675 769.057 153.395 769.057 154.115C769.057 155.405 768.922 159.335 768.922 161.345C768.922 163.91 770.497 164.99 772.957 164.99C776.377 164.99 778.507 162.995 779.482 161.555L778.117 159.89C777.022 161.525 775.462 162.95 772.987 162.95C771.817 162.95 770.917 162.455 770.917 160.94C770.917 159.08 771.022 155.735 771.097 154.115C771.127 153.515 771.202 152.735 771.292 152.105ZM781.338 153.695L781.533 155.75C783.273 155.36 786.333 155.045 787.743 154.895C786.723 155.66 785.508 157.355 785.508 159.515C785.508 162.77 788.478 164.465 791.628 164.66L792.318 162.605C789.783 162.47 787.473 161.585 787.473 159.11C787.473 157.34 788.838 155.39 790.638 154.91C791.448 154.73 792.738 154.715 793.548 154.715L793.533 152.78C792.468 152.825 790.833 152.915 789.288 153.05C786.528 153.29 784.068 153.5 782.808 153.62C782.523 153.65 781.923 153.68 781.338 153.695ZM798.768 156.395V157.94H805.683V156.395H798.768ZM796.083 159.755V161.42H809.508V159.755H796.083ZM801.858 158.795V163.37C801.858 163.58 801.768 163.655 801.468 163.655C801.168 163.655 800.043 163.655 799.083 163.625C799.368 164.09 799.698 164.855 799.818 165.365C801.093 165.365 802.053 165.335 802.758 165.095C803.478 164.825 803.703 164.36 803.703 163.43V158.795H801.858ZM805.098 156.395V156.725C804.543 157.46 803.268 158.525 802.113 159.125C802.383 159.365 802.863 159.86 803.073 160.16C804.543 159.455 806.028 158.285 807.063 157.175L805.923 156.305L805.548 156.395H805.098ZM796.263 153.65V157.325H797.958V155.24H807.558V157.325H809.343V153.65H796.263ZM806.658 151.37C806.298 152.21 805.623 153.335 805.053 154.07L806.523 154.61C807.138 153.95 807.918 152.93 808.608 151.94L806.658 151.37ZM797.268 152.105C797.778 152.735 798.333 153.59 798.543 154.145L800.178 153.395C799.938 152.81 799.338 152 798.798 151.415L797.268 152.105ZM801.048 151.775C801.498 152.465 801.963 153.41 802.113 154.01L803.823 153.35C803.628 152.75 803.118 151.835 802.638 151.175L801.048 151.775ZM817.068 155.705L818.283 156.8C818.883 156.38 820.053 155.45 820.443 155.12L819.993 153.95C818.973 153.305 817.368 152.615 816.123 152.165L815.013 153.545C816.153 153.95 817.368 154.565 818.013 155.015C817.803 155.18 817.428 155.45 817.068 155.705ZM814.518 162.62L814.803 164.585C815.538 164.735 816.393 164.825 817.233 164.825C818.778 164.825 820.218 164.225 820.218 162.215C820.218 160.82 819.333 159.485 817.713 157.865C817.338 157.475 816.948 157.1 816.498 156.65L815.043 157.88C815.523 158.24 816.048 158.705 816.423 159.065C817.083 159.725 818.133 161.09 818.133 162.005C818.133 162.695 817.593 162.965 816.828 162.965C816.108 162.965 815.343 162.845 814.518 162.62ZM822.828 163.775L824.658 162.8C824.193 161.39 823.023 159.11 822.093 157.955L820.473 158.825C821.478 160.085 822.468 162.275 822.828 163.775ZM815.433 160.925L814.293 159.455C813.408 160.43 811.773 161.69 810.483 162.395L811.623 164.015C813.213 163.025 814.593 161.81 815.433 160.925ZM821.973 153.8L820.788 154.295C821.193 154.88 821.658 155.765 821.958 156.38L823.158 155.87C822.888 155.315 822.348 154.355 821.973 153.8ZM823.743 153.125L822.558 153.62C822.978 154.175 823.458 155.06 823.773 155.69L824.958 155.165C824.703 154.64 824.148 153.695 823.743 153.125Z" fill="white"/>
<circle cx="1018.5" cy="105.5" r="89.5" fill="#FDCB63"/>
<path d="M958.96 135.125V142.25H960.415V135.125H958.96ZM966.685 140.375V147.365H968.35V140.375H966.685ZM961.24 133.295V139.31C961.24 141.905 961 144.395 958.945 146.21C959.335 146.45 959.965 147.005 960.25 147.35C962.56 145.28 962.83 142.31 962.83 139.31V133.295H961.24ZM963.925 141.485V146.36H965.515V142.955H970.375V141.485H963.925ZM964.075 133.64V134.9H969.535V137.27H963.91V138.53H971.215V133.64H964.075ZM964.51 135.485V136.7H970.555V135.485H964.51ZM969.595 141.485V144.695C969.595 144.815 969.55 144.86 969.43 144.86C969.31 144.86 968.965 144.86 968.62 144.845C968.8 145.265 968.98 145.865 969.025 146.315C969.745 146.315 970.3 146.3 970.72 146.06C971.17 145.82 971.245 145.415 971.245 144.725V141.485H969.595ZM963.1 139.055V141.635H964.69V140.42H970.63V141.635H972.295V139.055H963.1ZM976.72 136.31V137.885H984.115V136.31H976.72ZM977.11 139.31V140.825H983.8V139.31H977.11ZM976.555 142.61V144.08H984.37V142.61H976.555ZM979.57 136.805V143.39H981.235V136.805H979.57ZM981.715 141.305C982.15 141.77 982.66 142.43 982.9 142.85L984.1 142.175C983.845 141.77 983.305 141.14 982.855 140.705L981.715 141.305ZM974.14 133.85V147.335H975.97V135.5H984.88V147.335H986.815V133.85H974.14ZM975.13 144.935V146.585H985.765V144.935H975.13ZM996.205 139.49C995.41 140.945 993.925 142.235 992.365 143.015C992.725 143.33 993.295 144.02 993.535 144.365C995.185 143.375 996.835 141.785 997.825 140L996.205 139.49ZM996.4 133.205C995.905 134.06 995.005 135.2 994.3 135.92L995.53 136.625C996.25 135.965 997.165 134.96 997.96 134.015L996.4 133.205ZM999.205 134.315C997.96 135.935 995.89 137.975 994.225 139.25L995.41 140.03C997.09 138.815 999.205 136.895 1000.81 135.2L999.205 134.315ZM992.875 136.01C994 136.745 995.35 137.855 995.965 138.62L997.105 137.33C996.46 136.55 995.05 135.53 993.955 134.84L992.875 136.01ZM999.04 137.675C999.925 138.71 1000.86 140.15 1001.22 141.065L1002.73 140.21C1002.33 139.265 1001.32 137.9 1000.44 136.925L999.04 137.675ZM992.575 138.74L992.71 140.33C994.96 140.27 998.185 140.165 1001.23 140.06L1001.29 138.62C998.125 138.68 994.75 138.725 992.575 138.74ZM995.695 141.965L994.24 142.43C995.74 145.055 998.215 146.705 1001.67 147.395C1001.89 146.93 1002.36 146.24 1002.73 145.865C999.445 145.355 996.91 143.99 995.695 141.965ZM996.07 141.065L994.87 142.415H1000.11V141.065H996.07ZM999.52 141.065V141.32C998.53 143.81 995.665 145.34 992.365 145.91C992.68 146.27 993.07 146.975 993.22 147.425C996.865 146.6 999.94 144.875 1001.28 141.5L1000.15 141.005L999.865 141.065H999.52ZM991.585 136.49C990.805 137.975 989.5 139.43 988.225 140.36C988.525 140.75 989.005 141.65 989.17 142.04C990.64 140.825 992.2 138.905 993.175 137.075L991.585 136.49ZM991.315 133.265C990.7 134.255 989.44 135.515 988.36 136.265C988.645 136.595 989.08 137.225 989.305 137.585C990.565 136.655 991.975 135.2 992.905 133.895L991.315 133.265ZM990.355 139.73V147.38H992.035V138.275L991.885 138.2L990.355 139.73ZM1011.87 135.725L1009.81 135.665C1009.66 137.24 1009.33 138.965 1008.9 140.375C1008.27 142.4 1007.7 143.36 1007.05 143.36C1006.48 143.36 1005.88 142.625 1005.88 141.11C1005.88 139.22 1007.62 136.625 1010.8 136.625C1013.4 136.625 1014.87 138.305 1014.87 140.66C1014.87 142.865 1013.37 144.23 1011.46 144.695C1011.06 144.785 1010.64 144.86 1010.05 144.935L1011.19 146.705C1014.97 146.12 1016.91 143.885 1016.91 140.735C1016.91 137.45 1014.55 134.87 1010.85 134.87C1006.96 134.87 1003.95 137.84 1003.95 141.29C1003.95 143.825 1005.33 145.67 1007.01 145.67C1008.64 145.67 1009.93 143.81 1010.83 140.78C1011.36 139.01 1011.66 137.255 1011.87 135.725ZM1026.9 133.55V146.18H1028.74V133.55H1026.9ZM1022.89 137.81V139.55H1032.55V137.81H1022.89ZM1023.3 145.04V146.78H1032.3V145.04H1023.3ZM1020.49 137.675V147.32H1022.28V135.935L1022.25 135.905L1020.49 137.675ZM1022.08 133.28C1021.23 135.5 1019.77 137.705 1018.26 139.1C1018.59 139.535 1019.11 140.51 1019.29 140.93C1021.05 139.22 1022.76 136.475 1023.82 133.835L1022.08 133.28ZM1039.53 133.265V145.64C1039.53 145.895 1039.44 145.985 1039.15 146C1038.9 146 1038.01 146.015 1037.29 145.985C1037.52 146.345 1037.8 146.975 1037.89 147.395C1039.17 147.395 1039.98 147.365 1040.56 147.14C1041.13 146.885 1041.36 146.525 1041.36 145.64V133.265H1039.53ZM1033.9 134.24V135.665H1047.1V134.24H1033.9ZM1037.16 137.405H1043.79V138.125H1037.16V137.405ZM1035.45 136.265V139.265H1045.63V136.265H1035.45ZM1035.07 139.925V141.155H1044.06V145.79H1045.89V139.925H1035.07ZM1033.56 141.785V143.15H1047.45V141.785H1033.56ZM1034.95 143.855V145.16H1045.03V143.855H1034.95ZM1048.47 134.27C1050.72 136.355 1051.08 138.62 1051.08 141.425C1051.08 143.285 1050.97 144.98 1050.66 145.385C1050.55 145.535 1050.42 145.61 1050.2 145.64C1049.94 145.67 1049.49 145.67 1048.86 145.625C1049.16 146.12 1049.29 146.765 1049.29 147.335C1049.91 147.365 1050.51 147.35 1051.05 147.215C1051.41 147.14 1051.74 146.93 1051.96 146.63C1052.64 145.7 1052.77 143.57 1052.77 141.455C1052.77 138.485 1052.43 135.785 1049.73 133.34L1048.47 134.27ZM1051.21 138.86C1050.6 140.135 1049.35 141.605 1048.26 142.34C1048.65 142.67 1049.14 143.255 1049.41 143.675C1050.54 142.715 1051.83 141.02 1052.5 139.625L1051.21 138.86ZM1051.83 133.415C1051.05 134.975 1049.68 136.685 1048.27 137.735C1048.66 138.02 1049.23 138.545 1049.49 138.905C1050.96 137.735 1052.41 135.98 1053.4 134.18L1051.83 133.415ZM1053.3 134.27V135.605H1062.39V134.27H1053.3ZM1054.11 141.2V142.265H1062.31V141.2H1054.11ZM1053.61 142.745V144.02H1060.75V142.745H1053.61ZM1054.71 138.455V139.295H1061.49V138.455H1054.71ZM1054.71 139.82V140.66H1061.5V139.82H1054.71ZM1055.2 133.22V136.205H1056.82V133.22H1055.2ZM1057.38 137.465V141.77H1058.95V137.465H1057.38ZM1058.73 133.22V136.205H1060.36V133.22H1058.73ZM1054.65 135.77C1054.2 136.895 1053.4 137.99 1052.5 138.695C1052.82 138.965 1053.33 139.55 1053.54 139.835C1054.53 138.95 1055.49 137.57 1056.06 136.16L1054.65 135.77ZM1054.11 137.9V141.98H1055.65V137.165L1054.11 137.9ZM1054.83 136.895L1054.29 137.975H1061.89V136.895H1054.83ZM1057.77 135.905C1057.68 136.31 1057.45 136.895 1057.27 137.33L1058.62 137.615C1058.86 137.255 1059.16 136.76 1059.48 136.19L1057.77 135.905ZM1060.33 142.745V142.97C1059.19 144.905 1056.19 145.73 1052.73 146C1052.98 146.33 1053.34 147.005 1053.48 147.38C1057.12 146.945 1060.42 145.865 1061.91 143.285L1060.95 142.715L1060.66 142.745H1060.33ZM1056.21 143.84L1054.77 144.35C1056.24 146.075 1058.73 147.02 1061.77 147.365C1061.98 146.945 1062.4 146.285 1062.75 145.955C1059.88 145.745 1057.38 145.085 1056.21 143.84ZM1070.8 136.895H1074.72V137.66H1070.8V136.895ZM1070.8 134.96H1074.72V135.71H1070.8V134.96ZM1069.06 133.7V138.92H1076.53V133.7H1069.06ZM1068.31 139.58V141.05H1077.03V139.58H1068.31ZM1067.92 141.905V143.435H1077.33V141.905H1067.92ZM1073.46 140.87V145.52C1073.46 145.7 1073.4 145.745 1073.17 145.76C1072.98 145.775 1072.27 145.775 1071.64 145.745C1071.87 146.195 1072.12 146.855 1072.2 147.35C1073.23 147.35 1073.98 147.335 1074.54 147.08C1075.12 146.825 1075.27 146.39 1075.27 145.565V140.87H1073.46ZM1068.93 144.17C1069.54 144.815 1070.32 145.7 1070.65 146.27L1072 145.31C1071.61 144.755 1070.82 143.915 1070.17 143.33L1068.93 144.17ZM1066.87 136.58C1065.97 138.035 1064.5 139.52 1063.18 140.45C1063.45 140.885 1063.9 141.905 1064.02 142.295C1065.6 141.065 1067.35 139.085 1068.45 137.24L1066.87 136.58ZM1066.47 133.28C1065.84 134.285 1064.5 135.515 1063.33 136.235C1063.62 136.61 1064.04 137.345 1064.23 137.75C1065.64 136.835 1067.17 135.365 1068.18 133.97L1066.47 133.28ZM1065.39 139.925V147.35H1067.13V138.305L1067.05 138.26L1065.39 139.925ZM984.22 157.385V153.455C984.22 152.855 984.28 152.375 984.31 152.075H982.165C982.225 152.36 982.255 152.855 982.255 153.455V157.445C982.255 161.135 980.995 162.44 978.085 163.445L979.69 164.96C983.32 163.355 984.22 161.09 984.22 157.385ZM978.79 152.195H976.66C976.72 152.66 976.75 153.125 976.75 153.545V158.915C976.75 159.59 976.705 160.205 976.675 160.49H978.775C978.745 160.205 978.7 159.59 978.7 158.915V153.56C978.7 152.96 978.76 152.48 978.79 152.195ZM973.855 154.895V156.935C974.2 156.92 974.725 156.89 975.475 156.89H985.33C986.11 156.89 986.65 156.89 986.98 156.935V154.94C986.56 155 986.11 155.045 985.315 155.045H975.475C974.74 155.045 974.125 154.94 973.855 154.895ZM999.625 152.765C999.625 152.315 999.985 151.94 1000.44 151.94C1000.89 151.94 1001.26 152.315 1001.26 152.765C1001.26 153.215 1000.89 153.575 1000.44 153.575C999.985 153.575 999.625 153.215 999.625 152.765ZM998.71 152.765C998.71 153.725 999.475 154.49 1000.44 154.49C1001.4 154.49 1002.18 153.725 1002.18 152.765C1002.18 151.805 1001.4 151.025 1000.44 151.025C999.475 151.025 998.71 151.805 998.71 152.765ZM996.64 152.165H994.42C994.465 152.435 994.54 153.08 994.54 153.47C994.54 154.385 994.54 155.99 994.54 156.515C994.54 157.22 994.54 161.96 994.525 162.53C994.51 162.92 994.375 163.055 993.985 163.055C993.61 163.055 992.95 163.01 992.32 162.89L992.5 164.75C993.25 164.84 994.135 164.87 994.93 164.87C995.995 164.87 996.505 164.33 996.505 163.46C996.505 162.2 996.505 157.73 996.505 156.515C996.505 155.645 996.505 154.37 996.505 153.485C996.505 153.11 996.595 152.375 996.64 152.165ZM989.29 154.565V156.545C989.71 156.5 990.28 156.485 990.73 156.485C991.72 156.485 998.935 156.485 1000.02 156.485C1000.42 156.485 1001.01 156.5 1001.47 156.545V154.58C1001.07 154.625 1000.42 154.67 1000 154.67C998.92 154.67 991.645 154.67 990.73 154.67C990.265 154.67 989.74 154.625 989.29 154.565ZM993.115 158.63L991.405 157.82C990.79 159.095 989.59 160.745 988.585 161.705L990.22 162.8C991.03 161.915 992.425 159.95 993.115 158.63ZM999.55 157.775L997.915 158.66C998.65 159.59 999.715 161.405 1000.36 162.695L1002.12 161.72C1001.52 160.625 1000.32 158.735 999.55 157.775ZM1004.37 157.055V159.425C1004.94 159.38 1005.94 159.335 1006.78 159.335C1008.55 159.335 1013.49 159.335 1014.85 159.335C1015.48 159.335 1016.25 159.41 1016.61 159.425V157.055C1016.2 157.085 1015.54 157.16 1014.84 157.16C1013.5 157.16 1008.55 157.16 1006.78 157.16C1006 157.16 1004.92 157.1 1004.37 157.055ZM1022.7 162.575C1022.7 163.16 1022.65 164.075 1022.55 164.66H1024.9C1024.83 164.045 1024.77 162.995 1024.77 162.575C1024.77 161.465 1024.75 155.6 1024.75 153.95C1024.75 153.32 1024.83 152.675 1024.89 152.135H1022.55C1022.65 152.675 1022.7 153.41 1022.7 153.95C1022.7 155.21 1022.7 161.42 1022.7 162.575ZM1024.32 156.02V158.18C1025.95 158.72 1028.47 159.68 1030.18 160.565L1031.02 158.48C1029.55 157.76 1026.31 156.575 1024.32 156.02ZM1038.25 154.505V156.335H1047.52V154.505H1038.25ZM1044 151.43V163.16C1044 163.505 1043.85 163.61 1043.47 163.625C1043.11 163.64 1041.81 163.64 1040.64 163.58C1040.91 164.06 1041.24 164.87 1041.33 165.365C1042.99 165.38 1044.13 165.35 1044.87 165.065C1045.59 164.795 1045.86 164.315 1045.86 163.175V151.43H1044ZM1038.93 158.15C1039.6 159.305 1040.49 160.85 1040.88 161.765L1042.59 160.895C1042.14 159.98 1041.19 158.495 1040.52 157.4L1038.93 158.15ZM1035.49 155.675V165.32H1037.32V153.89L1037.31 153.86L1035.49 155.675ZM1036.99 151.34C1036.18 153.545 1034.82 155.735 1033.38 157.1C1033.71 157.55 1034.25 158.54 1034.44 158.99C1036.14 157.265 1037.76 154.52 1038.76 151.91L1036.99 151.34ZM1050.46 153.245L1050.57 154.955C1052.85 155.18 1054.92 155.165 1056.46 155.045C1057.77 154.955 1059.07 154.7 1060.15 154.4L1059.91 152.69C1058.67 153.08 1057.44 153.32 1056.07 153.41C1054.48 153.53 1052.65 153.5 1050.46 153.245ZM1050.19 156.38L1050.3 158.15C1053 158.33 1055.92 158.285 1057.81 158.075C1059.03 157.94 1060.14 157.73 1061.04 157.505L1060.74 155.735C1059.87 155.99 1058.74 156.29 1057.12 156.425C1055.32 156.605 1052.89 156.65 1050.19 156.38ZM1055.2 153.665C1055.4 154.385 1055.55 154.925 1055.92 155.99C1056.3 157.085 1056.85 158.39 1057.65 159.725C1057.21 159.68 1056.39 159.605 1055.76 159.545L1055.61 160.985C1056.7 161.105 1058.34 161.285 1059.18 161.465L1060.08 160.085C1059.81 159.83 1059.61 159.605 1059.4 159.305C1058.71 158.255 1057.98 156.71 1057.62 155.66C1057.23 154.505 1056.85 153.185 1056.67 151.745L1054.66 151.97C1054.87 152.555 1055.05 153.11 1055.2 153.665ZM1053.07 159.875L1051.21 159.515C1050.85 160.22 1050.54 160.955 1050.55 161.93C1050.6 164.06 1052.46 164.945 1055.44 164.945C1056.67 164.945 1058.05 164.84 1059.1 164.675L1059.21 162.77C1058.13 162.98 1056.85 163.085 1055.44 163.085C1053.45 163.085 1052.4 162.635 1052.4 161.525C1052.4 160.88 1052.71 160.37 1053.07 159.875Z" fill="white"/>
<path d="M208.959 91L222.997 105.039L210.039 117.997" stroke="#FDCB63" stroke-width="4"/>
<path d="M898.959 92L912.997 106.039L900.039 118.997" stroke="#FDCB63" stroke-width="4"/>
<path d="M665.959 92L679.997 106.039L667.039 118.997" stroke="#FDCB63" stroke-width="4"/>
<path d="M433.959 92L447.997 106.039L435.039 118.997" stroke="#FDCB63" stroke-width="4"/>
<mask id="mask2_0_1" style="mask-type:alpha" maskUnits="userSpaceOnUse" x="287" y="44" width="83" height="83">
<g clip-path="url(#clip1_0_1)">
<path d="M303.957 51.7812H297.375C291.653 51.7812 287 56.4338 287 62.1562V106.25C287 111.972 291.653 116.625 297.375 116.625H312.938V108.844H297.375C295.948 108.844 294.781 107.677 294.781 106.25V62.1562C294.781 60.7297 295.948 59.5625 297.375 59.5625H299.969C299.969 62.4318 302.287 64.75 305.156 64.75H316.893C319.746 61.5727 323.896 59.5625 328.5 59.5625H338.551C337.4 55.0883 333.331 51.7812 328.5 51.7812H321.918C321.302 47.3881 317.509 44 312.938 44C308.366 44 304.573 47.3881 303.957 51.7812ZM310.344 53.0781C310.344 52.3902 310.617 51.7305 311.103 51.2441C311.59 50.7576 312.25 50.4844 312.938 50.4844C313.625 50.4844 314.285 50.7576 314.772 51.2441C315.258 51.7305 315.531 52.3902 315.531 53.0781C315.531 53.766 315.258 54.4258 314.772 54.9122C314.285 55.3986 313.625 55.6719 312.938 55.6719C312.25 55.6719 311.59 55.3986 311.103 54.9122C310.617 54.4258 310.344 53.766 310.344 53.0781ZM359.625 119.219H328.5C327.073 119.219 325.906 118.052 325.906 116.625V75.125C325.906 73.6984 327.073 72.5312 328.5 72.5312H351.212L362.219 83.5385V116.625C362.219 118.052 361.052 119.219 359.625 119.219ZM328.5 127H359.625C365.347 127 370 122.347 370 116.625V83.5385C370 81.4797 369.173 79.502 367.714 78.043L356.707 67.0357C355.248 65.5768 353.27 64.75 351.212 64.75H328.5C322.778 64.75 318.125 69.4025 318.125 75.125V116.625C318.125 122.347 322.778 127 328.5 127Z" fill="black"/>
</g>
</mask>
<g mask="url(#mask2_0_1)">
<rect x="272.005" y="25.2036" width="121.015" height="120.382" fill="white"/>
</g>
<mask id="mask3_0_1" style="mask-type:alpha" maskUnits="userSpaceOnUse" x="503" y="23" width="125" height="125">
<g clip-path="url(#clip2_0_1)">
<path d="M579.875 55.5775C583.77 51.6675 593.861 48.1678 597.863 52.1536C601.979 56.2533 598.404 66.2443 594.509 70.1543L581.23 83.4846L589.895 115.006C590.389 116.796 589.88 118.703 588.57 120.018L582.17 126.443C580.963 127.655 578.92 127.373 578.084 125.88L564.046 100.736L552.339 112.489L554.004 123.987C554.12 124.786 553.848 125.608 553.278 126.179L548.495 130.981C547.607 131.873 546.181 131.864 545.3 130.987C545.152 130.839 545.026 130.668 544.911 130.486L535.911 114.346L519.737 105.409C519.543 105.307 519.383 105.17 519.234 105.022C518.342 104.134 518.351 102.708 519.228 101.828L524.011 97.0259C524.58 96.4543 525.401 96.1788 526.2 96.2914L537.705 97.9121L549.424 86.148L524.225 72.2079C522.717 71.3893 522.428 69.3474 523.635 68.1356L530.035 61.7105C531.345 60.3958 533.261 59.89 535.042 60.3658L566.597 68.9078L579.875 55.5775Z" fill="black"/>
</g>
</mask>
<g mask="url(#mask3_0_1)">
<rect x="498.01" y="13.0193" width="141.155" height="151.136" fill="white"/>
</g>
<mask id="mask4_0_1" style="mask-type:alpha" maskUnits="userSpaceOnUse" x="747" y="44" width="83" height="82">
<g clip-path="url(#clip3_0_1)">
<path d="M788.234 90.125C794.386 90.125 800.285 87.6952 804.635 83.3702C808.985 79.0451 811.429 73.1791 811.429 67.0625C811.429 60.9459 808.985 55.0799 804.635 50.7548C800.285 46.4298 794.386 44 788.234 44C782.083 44 776.183 46.4298 771.834 50.7548C767.484 55.0799 765.04 60.9459 765.04 67.0625C765.04 73.1791 767.484 79.0451 771.834 83.3702C776.183 87.6952 782.083 90.125 788.234 90.125ZM772.981 95.25C758.629 95.25 747 106.813 747 121.083C747 123.806 749.223 126 751.945 126H824.524C827.262 126 829.469 123.79 829.469 121.083C829.469 106.813 817.839 95.25 803.488 95.25H772.981Z" fill="black"/>
<path d="M819.8 50.2207L820.823 52.9248" stroke="white" stroke-width="4" stroke-linecap="round"/>
</g>
</mask>
<g mask="url(#mask4_0_1)">
<rect x="698.656" y="1.58621" width="181.431" height="179.834" fill="white"/>
</g>
<mask id="mask5_0_1" style="mask-type:alpha" maskUnits="userSpaceOnUse" x="813" y="55" width="20" height="24">
<path d="M826.891 69.3471C828.011 68.823 828.986 67.9613 829.652 66.8057C831.386 63.802 830.342 59.9707 827.321 58.2472C824.301 56.5236 820.447 57.5611 818.714 60.5649C818.047 61.7205 817.791 62.9916 817.901 64.2179C817.929 64.5333 817.97 64.8954 818.014 65.2819C818.131 66.3484 818.269 67.6245 818.248 68.7928C818.227 69.8536 817.968 70.824 817.62 71.6819L815.539 70.4946C815.74 69.9312 815.868 69.3439 815.881 68.7412C815.899 67.7351 815.788 66.7173 815.677 65.6994C815.629 65.271 815.581 64.8426 815.544 64.4148C815.396 62.7322 815.748 60.9794 816.663 59.3947C819.046 55.2651 824.345 53.8383 828.498 56.2078C832.651 58.5774 834.086 63.8463 831.703 67.9759C830.789 69.5606 829.445 70.7478 827.903 71.4717C827.512 71.6557 827.116 71.8306 826.72 72.0055C825.782 72.4194 824.842 72.8375 823.976 73.3652C823.459 73.6802 823.014 74.0871 822.626 74.5433L820.553 73.3609C821.123 72.6298 821.837 71.9136 822.745 71.3641C823.749 70.7565 824.927 70.2313 825.912 69.7937C826.27 69.6364 826.6 69.4863 826.888 69.3514L826.891 69.3471ZM825.36 61.646C824.228 61 822.782 61.3893 822.132 62.5151C821.916 62.889 821.432 63.0194 821.056 62.8049C820.68 62.5903 820.549 62.1089 820.765 61.735C821.849 59.8572 824.256 59.2089 826.145 60.2865C826.521 60.501 826.652 60.9824 826.436 61.3563C826.22 61.7302 825.736 61.8605 825.36 61.646ZM815.945 77.9604C814.057 76.8829 813.405 74.4892 814.488 72.6113L814.881 71.9316L821.717 75.8321L821.325 76.5119C820.241 78.3897 817.834 79.038 815.945 77.9604Z" fill="black"/>
</mask>
<g mask="url(#mask5_0_1)">
<path d="M795.94 41.7607H851.553V99.3144H795.94V41.7607Z" fill="white"/>
</g>
<path d="M838 60.4L835.156 60.9922" stroke="white" stroke-width="4" stroke-linecap="round"/>
<path d="M831.752 51.9172L830.037 54.2497" stroke="white" stroke-width="4" stroke-linecap="round"/>
<mask id="mask6_0_1" style="mask-type:alpha" maskUnits="userSpaceOnUse" x="976" y="50" width="85" height="76">
<g clip-path="url(#clip4_0_1)">
<path d="M985.444 50C980.235 50 976 54.2377 976 59.4499V101.974C976 107.187 980.235 111.424 985.444 111.424H1011.42L1009.84 116.149H999.611C996.999 116.149 994.889 118.261 994.889 120.874C994.889 123.488 996.999 125.599 999.611 125.599H1037.39C1040 125.599 1042.11 123.488 1042.11 120.874C1042.11 118.261 1040 116.149 1037.39 116.149H1027.16L1025.58 111.424H1051.56C1056.76 111.424 1061 107.187 1061 101.974V59.4499C1061 54.2377 1056.76 50 1051.56 50H985.444ZM1051.56 59.4499V92.5245H985.444V59.4499H1051.56Z" fill="black"/>
<g clip-path="url(#clip5_0_1)">
<path d="M1025.93 66.2981C1027.28 65.2749 1030.51 64.6457 1031.56 66.0346C1032.64 67.4632 1031.12 70.3544 1029.77 71.3776L1025.15 74.8659L1026.44 84.8529C1026.51 85.4203 1026.27 85.9795 1025.82 86.3235L1023.59 88.0049C1023.17 88.322 1022.56 88.1476 1022.37 87.656L1019.17 79.3804L1015.1 82.4558L1015.11 86.034C1015.11 86.2825 1014.99 86.5214 1014.8 86.6709L1013.13 87.9275C1012.82 88.1608 1012.39 88.0963 1012.16 87.7907C1012.12 87.7391 1012.09 87.6816 1012.06 87.621L1010.01 82.3094L1005.46 78.8826C1005.41 78.843 1005.36 78.7944 1005.32 78.7428C1005.09 78.4333 1005.15 77.9988 1005.46 77.7684L1007.12 76.5119C1007.32 76.3623 1007.58 76.314 1007.82 76.3829L1011.26 77.3763L1015.34 74.2979L1008.25 68.9541C1007.83 68.639 1007.83 68.0039 1008.25 67.6868L1010.47 66.0054C1010.93 65.6614 1011.54 65.5903 1012.06 65.8127L1021.31 69.7864L1025.93 66.2981Z" fill="black"/>
</g>
</g>
</mask>
<g mask="url(#mask6_0_1)">
<rect x="938.396" y="5.34563" width="184.493" height="148.456" fill="white"/>
</g>
<path d="M696.804 218.82L695.747 217.788L700.46 213.135L701.504 214.166L696.804 218.82ZM700.46 218.82L695.747 214.166L696.804 213.135L701.504 217.788L700.46 218.82ZM694.724 215.973C694.727 215.734 694.82 215.536 695.001 215.376C695.183 215.214 695.425 215.134 695.726 215.134C696.024 215.134 696.266 215.214 696.45 215.376C696.635 215.536 696.727 215.734 696.727 215.973C696.727 216.214 696.636 216.416 696.455 216.578C696.273 216.74 696.03 216.821 695.726 216.821C695.425 216.821 695.183 216.74 695.001 216.578C694.82 216.416 694.727 216.214 694.724 215.973ZM697.631 218.832C697.631 218.588 697.72 218.385 697.899 218.223C698.078 218.061 698.32 217.98 698.624 217.98C698.922 217.98 699.163 218.061 699.348 218.223C699.533 218.385 699.624 218.588 699.621 218.832C699.624 219.068 699.533 219.267 699.348 219.429C699.163 219.588 698.922 219.668 698.624 219.668C698.32 219.668 698.078 219.588 697.899 219.429C697.72 219.267 697.631 219.068 697.631 218.832ZM697.631 213.139C697.631 212.895 697.72 212.692 697.899 212.53C698.078 212.368 698.32 212.287 698.624 212.287C698.922 212.287 699.163 212.368 699.348 212.53C699.533 212.692 699.624 212.895 699.621 213.139C699.624 213.375 699.533 213.574 699.348 213.736C699.163 213.895 698.922 213.974 698.624 213.974C698.32 213.974 698.078 213.895 697.899 213.736C697.72 213.574 697.631 213.375 697.631 213.139ZM700.507 215.973C700.51 215.734 700.604 215.536 700.788 215.376C700.973 215.214 701.216 215.134 701.517 215.134C701.815 215.134 702.057 215.214 702.241 215.376C702.426 215.536 702.517 215.734 702.514 215.973C702.517 216.214 702.426 216.416 702.241 216.578C702.057 216.74 701.815 216.821 701.517 216.821C701.216 216.821 700.973 216.74 700.788 216.578C700.604 216.416 700.51 216.214 700.507 215.973ZM704.055 210.436V211.768H708.279V210.436H704.055ZM704.163 213.868V215.188H708.147V213.868H704.163ZM703.767 218.032L704.127 219.4C705.375 219.028 707.007 218.56 708.519 218.104L708.327 216.844C706.671 217.3 704.931 217.768 703.767 218.032ZM710.079 213.268H713.235V214.012H710.079V213.268ZM710.079 215.116H713.235V215.848H710.079V215.116ZM710.079 211.444H713.235V212.176H710.079V211.444ZM708.747 210.268V217.036H714.639V210.268H708.747ZM711.771 216.508V219.4C711.771 220.612 712.011 221.02 713.127 221.02C713.331 221.02 713.823 221.02 714.039 221.02C714.915 221.02 715.251 220.564 715.371 218.92C715.011 218.836 714.435 218.608 714.159 218.392C714.135 219.592 714.087 219.784 713.883 219.784C713.775 219.784 713.463 219.784 713.379 219.784C713.187 219.784 713.151 219.748 713.151 219.388V216.508H711.771ZM709.647 216.856C709.491 218.38 709.179 219.4 706.899 219.976C707.187 220.252 707.547 220.804 707.691 221.164C710.355 220.36 710.871 218.908 711.051 216.856H709.647ZM705.507 210.964V218.224L706.899 218.02V210.964H705.507ZM721.587 210.232V211.492H724.695V210.232H721.587ZM720.099 214.996V216.304H725.463V214.996H720.099ZM723.855 210.232V212.896C723.855 213.7 723.951 213.964 724.179 214.192C724.395 214.396 724.767 214.504 725.091 214.504C725.283 214.504 725.595 214.504 725.823 214.504C726.039 214.504 726.363 214.444 726.543 214.348C726.771 214.24 726.915 214.084 727.011 213.844C727.107 213.604 727.155 213.04 727.191 212.536C726.831 212.416 726.351 212.188 726.111 211.96C726.099 212.428 726.087 212.8 726.063 212.968C726.039 213.136 725.991 213.208 725.943 213.232C725.895 213.256 725.823 213.268 725.763 213.268C725.679 213.268 725.559 213.268 725.499 213.268C725.427 213.268 725.367 213.256 725.331 213.22C725.295 213.172 725.295 213.064 725.295 212.848V210.232H723.855ZM724.959 214.996V215.236C724.191 217.66 722.007 219.268 719.427 219.904C719.703 220.192 720.051 220.756 720.219 221.116C723.135 220.24 725.475 218.524 726.471 215.368L725.499 214.948L725.235 214.996H724.959ZM722.007 216.232L720.723 216.616C721.827 218.944 723.627 220.468 726.399 221.128C726.603 220.732 727.011 220.144 727.335 219.844C724.719 219.352 722.883 218.068 722.007 216.232ZM720.915 210.232V211.48C720.915 212.296 720.783 213.34 719.703 214.108C720.027 214.264 720.651 214.672 720.903 214.912C722.079 214.024 722.307 212.632 722.307 211.504V210.232H720.915ZM718.803 212.356C718.083 213.544 716.871 214.744 715.767 215.512C715.995 215.824 716.391 216.568 716.523 216.88C717.783 215.908 719.199 214.348 720.087 212.872L718.803 212.356ZM718.431 209.824C717.915 210.628 716.835 211.624 715.887 212.212C716.103 212.512 716.451 213.1 716.595 213.424C717.747 212.692 718.983 211.492 719.799 210.376L718.431 209.824ZM717.579 215.14V221.08H718.983V213.844L718.911 213.808L717.579 215.14ZM738.231 212.02L737.043 211.264C736.719 211.336 736.335 211.348 736.107 211.348C735.435 211.348 731.451 211.348 730.551 211.348C730.155 211.348 729.483 211.3 729.123 211.252V212.944C729.435 212.932 729.999 212.896 730.551 212.896C731.451 212.896 735.411 212.896 736.143 212.896C735.975 213.928 735.531 215.284 734.727 216.292C733.755 217.504 732.411 218.548 730.023 219.1L731.331 220.54C733.479 219.856 735.075 218.656 736.155 217.228C737.163 215.884 737.691 214.024 737.967 212.848C738.027 212.596 738.111 212.248 738.231 212.02ZM749.187 210.688H747.375C747.423 211.024 747.459 211.408 747.459 211.9C747.459 212.416 747.459 213.568 747.459 214.168C747.459 216.04 747.291 216.94 746.475 217.84C745.743 218.62 744.783 219.076 743.583 219.352L744.843 220.684C745.719 220.396 746.955 219.82 747.747 218.944C748.647 217.96 749.151 216.856 749.151 214.264C749.151 213.676 749.151 212.512 749.151 211.9C749.151 211.408 749.163 211.024 749.187 210.688ZM743.631 210.796H741.891C741.927 211.072 741.939 211.492 741.939 211.708C741.939 212.236 741.939 215.068 741.939 215.752C741.939 216.124 741.903 216.592 741.879 216.808H743.631C743.607 216.532 743.583 216.064 743.583 215.764C743.583 215.092 743.583 212.236 743.583 211.708C743.583 211.336 743.607 211.072 743.631 210.796ZM752.655 214.444V216.34C753.111 216.304 753.915 216.268 754.587 216.268C756.003 216.268 759.951 216.268 761.043 216.268C761.547 216.268 762.159 216.328 762.447 216.34V214.444C762.123 214.468 761.595 214.528 761.031 214.528C759.963 214.528 756.003 214.528 754.587 214.528C753.963 214.528 753.099 214.48 752.655 214.444ZM766.239 210.796V212.356C766.587 212.32 767.09 212.308 767.487 212.308C768.195 212.308 771.411 212.308 772.071 212.308C772.515 212.308 773.079 212.332 773.391 212.356V210.796C773.067 210.844 772.479 210.868 772.095 210.868C771.399 210.868 768.243 210.868 767.487 210.868C767.079 210.868 766.562 210.844 766.239 210.796ZM774.411 214.288L773.343 213.616C773.175 213.7 772.851 213.748 772.455 213.748C771.639 213.748 767.343 213.748 766.527 213.748C766.143 213.748 765.639 213.712 765.123 213.664V215.224C765.627 215.188 766.227 215.176 766.527 215.176C767.595 215.176 771.711 215.176 772.311 215.176C772.107 215.836 771.723 216.592 771.087 217.24C770.163 218.188 768.735 218.968 766.923 219.352L768.123 220.708C769.659 220.264 771.195 219.46 772.407 218.104C773.295 217.12 773.811 215.944 774.183 214.78C774.219 214.66 774.327 214.444 774.411 214.288ZM778.455 210.88L777.315 212.092C778.191 212.692 779.703 214 780.327 214.672L781.551 213.424C780.843 212.692 779.283 211.444 778.455 210.88ZM776.943 218.872L777.963 220.456C779.643 220.168 781.191 219.508 782.415 218.776C784.347 217.612 785.943 215.956 786.843 214.324L785.919 212.644C785.151 214.264 783.591 216.088 781.539 217.312C780.375 217.996 778.827 218.608 776.943 218.872ZM797.324 211.876L796.352 211.144C796.1 211.228 795.632 211.288 795.104 211.288C794.576 211.288 791.504 211.288 790.868 211.288C790.52 211.288 789.776 211.252 789.452 211.204V212.92C789.716 212.896 790.376 212.836 790.868 212.836C791.384 212.836 794.444 212.836 794.948 212.836C794.672 213.688 793.94 214.876 793.148 215.776C792.02 217.024 790.172 218.488 788.228 219.208L789.476 220.504C791.336 219.628 793.148 218.14 794.492 216.592C795.524 215.392 796.412 213.76 796.904 212.62C797.012 212.368 797.228 212.008 797.324 211.876ZM794.648 215.596L793.52 216.712C794.804 217.876 796.112 219.304 797 220.54L798.368 219.352C797.588 218.392 795.884 216.604 794.648 215.596ZM806.42 211.78L804.776 211.732C804.656 212.992 804.392 214.372 804.044 215.5C803.54 217.12 803.084 217.888 802.568 217.888C802.112 217.888 801.632 217.3 801.632 216.088C801.632 214.576 803.024 212.5 805.568 212.5C807.644 212.5 808.82 213.844 808.82 215.728C808.82 217.492 807.62 218.584 806.096 218.956C805.772 219.028 805.436 219.088 804.968 219.148L805.88 220.564C808.904 220.096 810.452 218.308 810.452 215.788C810.452 213.16 808.568 211.096 805.604 211.096C802.496 211.096 800.084 213.472 800.084 216.232C800.084 218.26 801.188 219.736 802.532 219.736C803.84 219.736 804.872 218.248 805.592 215.824C806.012 214.408 806.252 213.004 806.42 211.78ZM820.304 214.708V211.564C820.304 211.084 820.352 210.7 820.376 210.46H818.66C818.708 210.688 818.732 211.084 818.732 211.564V214.756C818.732 217.708 817.724 218.752 815.396 219.556L816.68 220.768C819.584 219.484 820.304 217.672 820.304 214.708ZM815.96 210.556H814.256C814.304 210.928 814.328 211.3 814.328 211.636V215.932C814.328 216.472 814.292 216.964 814.268 217.192H815.948C815.924 216.964 815.888 216.472 815.888 215.932V211.648C815.888 211.168 815.936 210.784 815.96 210.556ZM812.012 212.716V214.348C812.288 214.336 812.708 214.312 813.308 214.312H821.192C821.816 214.312 822.248 214.312 822.512 214.348V212.752C822.176 212.8 821.816 212.836 821.18 212.836H813.308C812.72 212.836 812.228 212.752 812.012 212.716ZM832.628 211.012C832.628 210.652 832.916 210.352 833.276 210.352C833.636 210.352 833.936 210.652 833.936 211.012C833.936 211.372 833.636 211.66 833.276 211.66C832.916 211.66 832.628 211.372 832.628 211.012ZM831.896 211.012C831.896 211.78 832.508 212.392 833.276 212.392C834.044 212.392 834.668 211.78 834.668 211.012C834.668 210.244 834.044 209.62 833.276 209.62C832.508 209.62 831.896 210.244 831.896 211.012ZM830.24 210.532H828.464C828.5 210.748 828.56 211.264 828.56 211.576C828.56 212.308 828.56 213.592 828.56 214.012C828.56 214.576 828.56 218.368 828.548 218.824C828.536 219.136 828.428 219.244 828.116 219.244C827.816 219.244 827.288 219.208 826.784 219.112L826.928 220.6C827.528 220.672 828.236 220.696 828.872 220.696C829.724 220.696 830.132 220.264 830.132 219.568C830.132 218.56 830.132 214.984 830.132 214.012C830.132 213.316 830.132 212.296 830.132 211.588C830.132 211.288 830.204 210.7 830.24 210.532ZM824.36 212.452V214.036C824.696 214 825.152 213.988 825.512 213.988C826.304 213.988 832.076 213.988 832.94 213.988C833.264 213.988 833.732 214 834.104 214.036V212.464C833.78 212.5 833.264 212.536 832.928 212.536C832.064 212.536 826.244 212.536 825.512 212.536C825.14 212.536 824.72 212.5 824.36 212.452ZM827.42 215.704L826.052 215.056C825.56 216.076 824.6 217.396 823.796 218.164L825.104 219.04C825.752 218.332 826.868 216.76 827.42 215.704ZM832.568 215.02L831.26 215.728C831.848 216.472 832.7 217.924 833.216 218.956L834.62 218.176C834.14 217.3 833.18 215.788 832.568 215.02ZM836.42 214.444V216.34C836.876 216.304 837.68 216.268 838.352 216.268C839.768 216.268 843.716 216.268 844.808 216.268C845.312 216.268 845.924 216.328 846.212 216.34V214.444C845.888 214.468 845.36 214.528 844.796 214.528C843.728 214.528 839.768 214.528 838.352 214.528C837.728 214.528 836.864 214.48 836.42 214.444ZM851.084 218.86C851.084 219.328 851.048 220.06 850.964 220.528H852.848C852.788 220.036 852.74 219.196 852.74 218.86C852.74 217.972 852.728 213.28 852.728 211.96C852.728 211.456 852.788 210.94 852.836 210.508H850.964C851.048 210.94 851.084 211.528 851.084 211.96C851.084 212.968 851.084 217.936 851.084 218.86ZM852.38 213.616V215.344C853.688 215.776 855.704 216.544 857.072 217.252L857.744 215.584C856.568 215.008 853.976 214.06 852.38 213.616ZM863.528 212.404V213.868H870.944V212.404H863.528ZM868.124 209.944V219.328C868.124 219.604 868.004 219.688 867.704 219.7C867.416 219.712 866.372 219.712 865.436 219.664C865.652 220.048 865.916 220.696 865.988 221.092C867.32 221.104 868.232 221.08 868.82 220.852C869.396 220.636 869.612 220.252 869.612 219.34V209.944H868.124ZM864.068 215.32C864.608 216.244 865.316 217.48 865.628 218.212L866.996 217.516C866.636 216.784 865.88 215.596 865.34 214.72L864.068 215.32ZM861.32 213.34V221.056H862.784V211.912L862.772 211.888L861.32 213.34ZM862.52 209.872C861.872 211.636 860.78 213.388 859.628 214.48C859.892 214.84 860.324 215.632 860.48 215.992C861.836 214.612 863.132 212.416 863.936 210.328L862.52 209.872ZM873.296 211.396L873.38 212.764C875.204 212.944 876.86 212.932 878.096 212.836C879.14 212.764 880.184 212.56 881.048 212.32L880.856 210.952C879.86 211.264 878.876 211.456 877.784 211.528C876.512 211.624 875.048 211.6 873.296 211.396ZM873.08 213.904L873.164 215.32C875.324 215.464 877.664 215.428 879.176 215.26C880.148 215.152 881.036 214.984 881.756 214.804L881.516 213.388C880.82 213.592 879.92 213.832 878.624 213.94C877.184 214.084 875.24 214.12 873.08 213.904ZM877.088 211.732C877.244 212.308 877.364 212.74 877.664 213.592C877.964 214.468 878.408 215.512 879.044 216.58C878.696 216.544 878.036 216.484 877.532 216.436L877.412 217.588C878.288 217.684 879.596 217.828 880.268 217.972L880.988 216.868C880.772 216.664 880.616 216.484 880.448 216.244C879.896 215.404 879.308 214.168 879.02 213.328C878.708 212.404 878.408 211.348 878.264 210.196L876.656 210.376C876.824 210.844 876.968 211.288 877.088 211.732ZM875.384 216.7L873.896 216.412C873.608 216.976 873.356 217.564 873.368 218.344C873.404 220.048 874.892 220.756 877.28 220.756C878.264 220.756 879.368 220.672 880.208 220.54L880.292 219.016C879.428 219.184 878.408 219.268 877.28 219.268C875.684 219.268 874.844 218.908 874.844 218.02C874.844 217.504 875.096 217.096 875.384 216.7Z" fill="black"/>
<defs>
<clipPath id="clip0_0_1">
<rect width="86" height="76.0769" fill="white" transform="translate(55 51)"/>
</clipPath>
<clipPath id="clip1_0_1">
<rect width="83" height="83" fill="white" transform="translate(287 44)"/>
</clipPath>
<clipPath id="clip2_0_1">
<rect width="92.9472" height="82.6197" fill="white" transform="translate(503 88.8513) rotate(-45.1115)"/>
</clipPath>
<clipPath id="clip3_0_1">
<rect width="82.4688" height="82" fill="white" transform="translate(747 44)"/>
</clipPath>
<clipPath id="clip4_0_1">
<rect width="85" height="75.5991" fill="white" transform="translate(976 50)"/>
</clipPath>
<clipPath id="clip5_0_1">
<rect width="28.5945" height="25.4608" fill="white" transform="translate(1001.07 73.1077) rotate(-37.0592)"/>
</clipPath>
</defs>
</svg>
