<svg width="169" height="48" viewBox="0 0 169 48" fill="none" xmlns="http://www.w3.org/2000/svg">
<path d="M0.863636 47.25V12.3409H3.61364V47.25H0.863636ZM2.25 6.15909C1.64394 6.15909 1.11364 5.94697 0.659091 5.52272C0.219697 5.09848 0 4.58333 0 3.97727C0 3.37121 0.219697 2.85606 0.659091 2.43182C1.09848 2.00757 1.62879 1.79545 2.25 1.79545C2.85606 1.79545 3.37879 2.00757 3.81818 2.43182C4.27273 2.85606 4.5 3.37121 4.5 3.97727C4.5 4.58333 4.2803 5.09848 3.84091 5.52272C3.40152 5.94697 2.87121 6.15909 2.25 6.15909Z" fill="#E3B967"/>
<path d="M41.2955 12.3409C41.053 9.44697 39.8712 7.10606 37.75 5.31818C35.6439 3.5303 32.9167 2.63636 29.5682 2.63636C27.3106 2.63636 25.303 3.05303 23.5455 3.88636C21.7879 4.7197 20.4091 5.85606 19.4091 7.29545C18.4091 8.73485 17.9091 10.3864 17.9091 12.25C17.9091 13.447 18.1364 14.5303 18.5909 15.5C19.0606 16.4545 19.7197 17.3106 20.5682 18.0682C21.4167 18.8106 22.4242 19.4621 23.5909 20.0227C24.7576 20.5833 26.0455 21.0758 27.4545 21.5L32.5455 23C34.2879 23.5303 35.8939 24.1439 37.3636 24.8409C38.8485 25.5379 40.1364 26.3712 41.2273 27.3409C42.3333 28.2955 43.1894 29.4167 43.7955 30.7045C44.4167 31.9924 44.7273 33.4773 44.7273 35.1591C44.7273 37.6136 44.0909 39.8106 42.8182 41.75C41.5606 43.6894 39.7651 45.2197 37.4318 46.3409C35.1136 47.447 32.3788 48 29.2273 48C26.2273 48 23.6136 47.4924 21.3864 46.4773C19.1742 45.4621 17.4242 44.053 16.1364 42.25C14.8485 40.4318 14.1212 38.3409 13.9545 35.9773H16.8636C17.0152 37.9015 17.6288 39.5682 18.7045 40.9773C19.7955 42.3712 21.2424 43.447 23.0455 44.2045C24.8485 44.9621 26.9091 45.3409 29.2273 45.3409C31.7273 45.3409 33.9318 44.9167 35.8409 44.0682C37.75 43.2045 39.2424 42.0076 40.3182 40.4773C41.3939 38.947 41.9318 37.1667 41.9318 35.1364C41.9318 33.5 41.5455 32.0985 40.7727 30.9318C40 29.7651 38.8561 28.7576 37.3409 27.9091C35.8409 27.0606 33.9773 26.303 31.75 25.6364L26.3182 24C22.6818 22.8939 19.9015 21.3864 17.9773 19.4773C16.0682 17.5682 15.1136 15.1894 15.1136 12.3409C15.1136 9.94697 15.75 7.82576 17.0227 5.97727C18.2955 4.11363 20.0227 2.65151 22.2045 1.59091C24.4015 0.530303 26.8788 0 29.6364 0C32.4091 0 34.8561 0.537879 36.9773 1.61364C39.0985 2.67424 40.7803 4.13636 42.0227 6C43.2652 7.84849 43.9545 9.96212 44.0909 12.3409H41.2955Z" fill="#E3B967"/>
<path d="M54.1591 47.25H51.1591L67.9545 0.704544H71.2273L88.0227 47.25H85.0227L69.7045 4.36364H69.4773L54.1591 47.25ZM58.4091 29.7273H80.7727V32.3636H58.4091V29.7273Z" fill="#E3B967"/>
<path d="M96.7045 47.25V0.704544H111.045C113.985 0.704544 116.515 1.2803 118.636 2.43182C120.758 3.58333 122.386 5.18182 123.523 7.22727C124.659 9.25758 125.227 11.6212 125.227 14.3182C125.227 16.9848 124.659 19.3333 123.523 21.3636C122.386 23.3788 120.758 24.9545 118.636 26.0909C116.53 27.2273 114.008 27.7955 111.068 27.7955H98.2273V25.1364H111C113.394 25.1364 115.439 24.6894 117.136 23.7955C118.833 22.9015 120.136 21.6515 121.045 20.0455C121.955 18.4242 122.409 16.5152 122.409 14.3182C122.409 12.1061 121.955 10.1818 121.045 8.54545C120.136 6.89394 118.826 5.61363 117.114 4.70454C115.417 3.79545 113.371 3.34091 110.977 3.34091H99.5455V47.25H96.7045ZM115.818 26.1591L127.273 47.25H124L112.614 26.1591H115.818Z" fill="#E3B967"/>
<path d="M134.784 47.25H131.784L148.58 0.704544H151.852L168.648 47.25H165.648L150.33 4.36364H150.102L134.784 47.25ZM139.034 29.7273H161.398V32.3636H139.034V29.7273Z" fill="#E3B967"/>
</svg>
