<svg width="85" height="76" viewBox="0 0 85 76" fill="none" xmlns="http://www.w3.org/2000/svg">
<mask id="mask0_4_534" style="mask-type:alpha" maskUnits="userSpaceOnUse" x="0" y="0" width="85" height="76">
<mask id="mask1_4_534" style="mask-type:alpha" maskUnits="userSpaceOnUse" x="0" y="0" width="85" height="76">
<g clip-path="url(#clip0_4_534)">
<path d="M9.44444 0C4.23524 0 0 4.23768 0 9.44989V51.9744C0 57.1866 4.23524 61.4243 9.44444 61.4243H35.4167L33.8377 66.1492H23.6111C20.9991 66.1492 18.8889 68.2607 18.8889 70.8741C18.8889 73.4876 20.9991 75.5991 23.6111 75.5991H61.3889C64.0009 75.5991 66.1111 73.4876 66.1111 70.8741C66.1111 68.2607 64.0009 66.1492 61.3889 66.1492H51.1623L49.5833 61.4243H75.5556C80.7648 61.4243 85 57.1866 85 51.9744V9.44989C85 4.23768 80.7648 0 75.5556 0H9.44444ZM75.5556 9.44989V42.5245H9.44444V9.44989H75.5556Z" fill="black"/>
<g clip-path="url(#clip1_4_534)">
<path d="M49.9298 16.2981C51.2847 15.2749 54.5109 14.6457 55.5598 16.0346C56.6386 17.4632 55.1206 20.3544 53.7657 21.3776L49.1465 24.8659L50.4365 34.8529C50.5104 35.4203 50.2733 35.9795 49.8177 36.3235L47.5913 38.0049C47.1713 38.322 46.5606 38.1476 46.3698 37.656L43.1685 29.3804L39.096 32.4558L39.1107 36.034C39.1117 36.2825 38.9935 36.5214 38.7954 36.6709L37.1316 37.9275C36.8225 38.1608 36.3881 38.0963 36.1574 37.7907C36.1184 37.7391 36.0874 37.6816 36.0603 37.621L34.0087 32.3094L29.4613 28.8826C29.4065 28.843 29.3636 28.7944 29.3246 28.7428C29.0909 28.4333 29.1547 27.9988 29.4597 27.7684L31.1236 26.5119C31.3216 26.3623 31.5837 26.314 31.8225 26.3829L35.26 27.3763L39.3365 24.2979L32.2528 18.9541C31.8283 18.639 31.8276 18.0039 32.2476 17.6868L34.474 16.0054C34.9296 15.6614 35.5353 15.5903 36.0578 15.8127L45.3106 19.7864L49.9298 16.2981Z" fill="black"/>
</g>
</g>
</mask>
<g mask="url(#mask1_4_534)">
<rect x="-37.6037" y="-44.6544" width="184.493" height="148.456" fill="white"/>
</g>
</mask>
<g mask="url(#mask0_4_534)">
<rect x="-50" y="-58" width="185" height="164" fill="#FDCB63"/>
</g>
<defs>
<clipPath id="clip0_4_534">
<rect width="85" height="75.5991" fill="white"/>
</clipPath>
<clipPath id="clip1_4_534">
<rect width="28.5945" height="25.4608" fill="white" transform="translate(25.0692 23.1077) rotate(-37.0592)"/>
</clipPath>
</defs>
</svg>
