<svg width="83" height="83" viewBox="0 0 83 83" fill="none" xmlns="http://www.w3.org/2000/svg">
<mask id="mask0_4_507" style="mask-type:alpha" maskUnits="userSpaceOnUse" x="0" y="0" width="83" height="83">
<mask id="mask1_4_507" style="mask-type:alpha" maskUnits="userSpaceOnUse" x="0" y="0" width="83" height="83">
<g clip-path="url(#clip0_4_507)">
<path d="M16.9566 7.78125H10.375C4.65254 7.78125 0 12.4338 0 18.1562V62.25C0 67.9725 4.65254 72.625 10.375 72.625H25.9375V64.8438H10.375C8.94844 64.8438 7.78125 63.6766 7.78125 62.25V18.1562C7.78125 16.7297 8.94844 15.5625 10.375 15.5625H12.9688C12.9688 18.4318 15.2869 20.75 18.1562 20.75H29.893C32.7461 17.5727 36.8961 15.5625 41.5 15.5625H51.5508C50.3998 11.0883 46.3309 7.78125 41.5 7.78125H34.9184C34.3023 3.38809 30.509 0 25.9375 0C21.366 0 17.5727 3.38809 16.9566 7.78125ZM23.3438 9.07812C23.3438 8.39022 23.617 7.73049 24.1034 7.24407C24.5899 6.75764 25.2496 6.48438 25.9375 6.48438C26.6254 6.48438 27.2851 6.75764 27.7716 7.24407C28.258 7.73049 28.5312 8.39022 28.5312 9.07812C28.5312 9.76603 28.258 10.4258 27.7716 10.9122C27.2851 11.3986 26.6254 11.6719 25.9375 11.6719C25.2496 11.6719 24.5899 11.3986 24.1034 10.9122C23.617 10.4258 23.3438 9.76603 23.3438 9.07812ZM72.625 75.2188H41.5C40.0734 75.2188 38.9062 74.0516 38.9062 72.625V31.125C38.9062 29.6984 40.0734 28.5312 41.5 28.5312H64.2115L75.2188 39.5385V72.625C75.2188 74.0516 74.0516 75.2188 72.625 75.2188ZM41.5 83H72.625C78.3475 83 83 78.3475 83 72.625V39.5385C83 37.4797 82.1732 35.502 80.7143 34.043L69.707 23.0357C68.248 21.5768 66.2703 20.75 64.2115 20.75H41.5C35.7775 20.75 31.125 25.4025 31.125 31.125V72.625C31.125 78.3475 35.7775 83 41.5 83Z" fill="black"/>
</g>
</mask>
<g mask="url(#mask1_4_507)">
<rect x="-14.9949" y="-18.7964" width="121.015" height="120.382" fill="white"/>
</g>
</mask>
<g mask="url(#mask0_4_507)">
<path d="M-75 -58H177V150H-75V-58Z" fill="#FDCB63"/>
</g>
<defs>
<clipPath id="clip0_4_507">
<rect width="83" height="83" fill="white"/>
</clipPath>
</defs>
</svg>
